<svg width="575" height="163" viewBox="0 0 575 163" fill="none" xmlns="http://www.w3.org/2000/svg">
<line y1="160.5" x2="574" y2="160.5" stroke="#D7CA00" stroke-width="5"/>
<rect x="244" width="331" height="163" fill="#D7CA00"/>
<path d="M3.5 75.9375V71.0625C3.5 56.5208 6.89583 45.5 13.6875 38C20.4792 30.5 29.7292 26.75 41.4375 26.75C51.9792 26.75 60.0208 29.3542 65.5625 34.5625C71.1042 39.7292 73.875 46.5417 73.875 55V58H53.0625V56.1875C53.0625 51.8125 52.0208 48.5 49.9375 46.25C47.8958 43.9583 44.7917 42.8125 40.625 42.8125C36.125 42.8125 32.625 44.6458 30.125 48.3125C27.6667 51.9375 26.4375 57.625 26.4375 65.375V82C26.4375 89.4167 27.7917 95.0833 30.5 99C33.2083 102.917 37 104.875 41.875 104.875C44.3333 104.875 46.4792 104.542 48.3125 103.875C50.1458 103.208 51.8125 102.167 53.3125 100.75V85.4375H40.6875V70.75L74.125 70.6875V107.875C72 110.458 68.25 113.167 62.875 116C57.5 118.833 50.4375 120.25 41.6875 120.25C30.0208 120.25 20.7292 116.5 13.8125 109C6.9375 101.5 3.5 90.4792 3.5 75.9375ZM83.5625 119V28H106V119H83.5625ZM117.25 119V28H149.25C160.875 28 169.896 31.7708 176.312 39.3125C182.771 46.8125 186 57.3333 186 70.875V75.8125C186 89.3125 182.792 99.8958 176.375 107.562C169.958 115.188 160.917 119 149.25 119H117.25ZM138.75 103.688H146.938C152.354 103.688 156.5 101.625 159.375 97.5C162.25 93.375 163.688 87.1875 163.688 78.9375V68.125C163.688 59.7917 162.188 53.6875 159.188 49.8125C156.229 45.9375 152.146 43.9792 146.938 43.9375H138.75V103.688ZM195.312 119V28H217.75V119H195.312Z" fill="#D7CA00"/>
<path d="M255.188 89.9375V85.375H274.812V92.3125C274.812 96.6875 275.542 99.9375 277 102.062C278.458 104.146 280.792 105.188 284 105.188C286.917 105.188 289.167 104.104 290.75 101.938C292.375 99.7292 293.188 96.0417 293.188 90.875V28H315.375V88.125C315.375 98.375 312.917 106.292 308 111.875C303.083 117.458 295.521 120.25 285.312 120.25C275.438 120.25 267.938 117.812 262.812 112.938C257.729 108.062 255.188 100.396 255.188 89.9375ZM324.25 75.9375V71.0625C324.25 55.4792 327.729 44.2083 334.688 37.25C341.688 30.25 350.646 26.75 361.562 26.75C372.521 26.75 381.479 30.25 388.438 37.25C395.438 44.2083 398.938 55.4792 398.938 71.0625V75.9375C398.938 91.5208 395.438 102.812 388.438 109.812C381.479 116.771 372.521 120.25 361.562 120.25C350.646 120.25 341.688 116.771 334.688 109.812C327.729 102.812 324.25 91.5208 324.25 75.9375ZM347.312 82.4375C347.312 90.6875 348.562 96.5417 351.062 100C353.604 103.458 357.104 105.188 361.562 105.188C366.021 105.188 369.5 103.458 372 100C374.542 96.5417 375.812 90.6875 375.812 82.4375V64.6875C375.812 56.4792 374.542 50.6667 372 47.25C369.5 43.8333 366.021 42.125 361.562 42.125C357.104 42.125 353.604 43.8333 351.062 47.25C348.562 50.6667 347.312 56.4792 347.312 64.6875V82.4375ZM407.75 119V28H444.812C453.812 28 460.396 30.0208 464.562 34.0625C468.771 38.0625 470.875 43.7083 470.875 51C470.875 56.2083 469.792 60.5417 467.625 64C465.458 67.4583 462.562 69.8125 458.938 71.0625V71.3125C463.396 72.4375 467.062 74.8333 469.938 78.5C472.854 82.125 474.312 87.1875 474.312 93.6875C474.312 101.604 471.812 107.812 466.812 112.312C461.854 116.771 454.979 119 446.188 119H407.75ZM429.25 104.375H440.438C444.312 104.375 447.188 103.229 449.062 100.938C450.979 98.6458 451.938 95.5417 451.938 91.625C451.938 87.6667 450.979 84.5 449.062 82.125C447.188 79.75 444.312 78.5625 440.438 78.5625H429.25V104.375ZM429.25 67.125H439.25C443 67.125 445.708 66.0625 447.375 63.9375C449.083 61.8125 449.938 58.8333 449.938 55C449.938 51.1667 449.083 48.2708 447.375 46.3125C445.708 44.3125 443 43.3125 439.25 43.3125H429.25V67.125ZM478.938 94.8125V89.625H499.062V92.875C499.021 97.2083 500.125 100.438 502.375 102.562C504.625 104.646 507.75 105.688 511.75 105.688C515.583 105.688 518.542 104.729 520.625 102.812C522.708 100.896 523.75 98.2917 523.75 95C523.75 92.2917 522.542 90.0208 520.125 88.1875C517.75 86.3542 513.333 84.3542 506.875 82.1875C497.458 79.0625 490.625 75.1875 486.375 70.5625C482.167 65.9375 480.062 60.0625 480.062 52.9375C480.062 44.8542 482.875 38.4792 488.5 33.8125C494.167 29.1458 501.708 26.8125 511.125 26.8125C520.458 26.8125 528 28.9167 533.75 33.125C539.5 37.3333 542.375 43.375 542.375 51.25V55.3125H522.625V53C522.625 49.5 521.667 46.7708 519.75 44.8125C517.875 42.8542 515.146 41.875 511.562 41.875C507.729 41.875 504.958 42.7292 503.25 44.4375C501.542 46.1458 500.688 48.375 500.688 51.125C500.688 53.625 501.958 55.75 504.5 57.5C507.083 59.2083 511.812 61.125 518.688 63.25C527.688 66.0417 534.208 69.7917 538.25 74.5C542.292 79.1667 544.312 85.3125 544.312 92.9375C544.312 101.479 541.333 108.167 535.375 113C529.458 117.833 521.688 120.25 512.062 120.25C502.396 120.25 494.458 118.104 488.25 113.812C482.042 109.521 478.938 103.188 478.938 94.8125Z" fill="black"/>
</svg>
