<svg width="114" height="75" viewBox="0 0 114 75" fill="none" xmlns="http://www.w3.org/2000/svg">
<line y1="67.5" x2="110" y2="67.5" stroke="#D7CA00" stroke-width="5"/>
<rect x="52" y="5" width="62" height="65" fill="#D7CA00"/>
<path d="M9.0625 37.5312V34.9688C9.0625 27.7188 10.8021 22.2188 14.2812 18.4688C17.7604 14.6979 22.4688 12.8125 28.4062 12.8125C33.7604 12.8125 37.875 14.125 40.75 16.75C43.625 19.375 45.0729 22.7917 45.0938 27V28.25H34.8438V27.5C34.8438 25.3542 34.2708 23.6875 33.125 22.5C32 21.2917 30.2917 20.6875 28 20.6875C25.5625 20.6875 23.6458 21.6562 22.25 23.5938C20.8542 25.5312 20.1562 28.5208 20.1562 32.5625V40.0938C20.1562 44.0312 20.9062 47.0208 22.4062 49.0625C23.9271 51.0833 26.0312 52.0938 28.7188 52.0938C30.0729 52.0938 31.2396 51.9271 32.2188 51.5938C33.2188 51.2396 34.1458 50.6979 35 49.9688V42.2188H28.125V34.9062L45.1875 34.875V53.4375C44 54.8125 42.0312 56.1979 39.2812 57.5938C36.5312 58.9896 32.9792 59.6875 28.625 59.6875C22.625 59.6875 17.8646 57.8125 14.3438 54.0625C10.8229 50.2917 9.0625 44.7812 9.0625 37.5312Z" fill="white"/>
<path d="M63.2188 44.5938V42.7188H72.9375V45.5625C72.9375 47.875 73.3333 49.5625 74.125 50.625C74.9375 51.6875 76.1979 52.2188 77.9062 52.2188C79.5104 52.2188 80.7396 51.6667 81.5938 50.5625C82.4479 49.4375 82.875 47.5417 82.875 44.875V13.5H93.625V43.625C93.625 48.75 92.3438 52.7083 89.7812 55.5C87.2396 58.2917 83.4583 59.6875 78.4375 59.6875C73.5208 59.6875 69.75 58.4688 67.125 56.0312C64.5208 53.5938 63.2188 49.7812 63.2188 44.5938Z" fill="black"/>
</svg>
