<svg width="502" height="317" viewBox="0 0 502 317" fill="none" xmlns="http://www.w3.org/2000/svg">
<g clip-path="url(#clip0_2_904)">
<path d="M251.431 294.064C281.508 285.829 312.769 276.959 344.225 278.154C359.762 278.743 374.589 282.305 389.465 286.624C403.896 290.814 418.385 295.255 433.474 296.094C443.406 296.647 453.502 295.283 462.574 291.013C471.105 286.997 478.361 280.972 484.338 273.687C492.787 263.389 498.489 250.807 502 237.754L501.99 200.245H471.6L382.035 215.255V181.13H232.314V203.201H139.567V185.629H55.8458L49.1927 262.247C50.2533 262.866 51.3213 263.475 52.3966 264.068C58.703 267.553 65.2528 270.57 72.1106 272.784C78.926 274.985 85.8899 276.7 92.7478 278.759C99.2275 280.705 105.619 283.003 111.675 286.05C117.896 289.178 123.542 293.174 128.941 297.556C137.512 304.512 146.699 314.201 157.874 316.856H172.851C176.146 316.291 179.403 315.448 182.603 314.496C189.79 312.357 196.852 309.794 204.032 307.616C219.754 302.849 235.586 298.402 251.432 294.064H251.431Z" fill="#D7CA00"/>
<path d="M61.015 108.126H60.3694V185.624H61.015V108.126Z" fill="#D7CA00"/>
<path d="M84.1063 108.126H83.4607V185.624H84.1063V108.126Z" fill="#D7CA00"/>
<path d="M89.2515 108.849V107.405H54.5768V108.849H89.2515Z" fill="#D7CA00"/>
<path d="M89.2515 116.211V114.767H54.5768V116.211H89.2515Z" fill="#D7CA00"/>
<path d="M89.2515 123.573V122.129H54.5768V123.573H89.2515Z" fill="#D7CA00"/>
<path d="M89.2515 130.936V129.492H54.5768V130.936H89.2515Z" fill="#D7CA00"/>
<path d="M89.2515 138.298V136.854H54.5768V138.298H89.2515Z" fill="#D7CA00"/>
<path d="M89.2515 145.66V144.216H54.5768V145.66H89.2515Z" fill="#D7CA00"/>
<path d="M89.2524 153.023V151.579H54.5778V153.023H89.2524Z" fill="#D7CA00"/>
<path d="M89.2515 160.386V158.941H54.5768V160.386H89.2515Z" fill="#D7CA00"/>
<path d="M89.2515 167.748V166.304H54.5768V167.748H89.2515Z" fill="#D7CA00"/>
<path d="M89.2524 175.111V173.667H54.5778V175.111H89.2524Z" fill="#D7CA00"/>
<path d="M251.431 294.064C281.508 285.829 312.769 276.959 344.225 278.154C359.762 278.743 374.589 282.305 389.465 286.624C403.896 290.814 418.385 295.255 433.474 296.094C443.406 296.647 453.502 295.283 462.574 291.013C471.105 286.997 478.361 280.972 484.338 273.687C492.785 263.392 498.486 250.812 501.997 237.762L501.989 211.742H480.563V163.767L465.682 153.373H441.552L425.756 164.406V192.347H345.212V155.138H274.853V236.088H223.979L223.298 143.494L208.412 129.557L174.812 128.06L161.091 144.587V212.564L143.693 218.737V241.914H63.0311V168.629L11.5346 159.77C10.4482 163.195 9.44663 166.651 8.51977 170.132C6.57106 177.453 4.93407 184.855 3.45018 192.285C2.19684 198.56 0.522038 204.972 0.0738254 211.371C-0.258184 216.11 0.470392 220.339 3.08404 224.378C6.53971 229.718 11.9791 233.985 16.6798 238.175C27.6758 247.975 39.4972 256.941 52.3957 264.067C58.7021 267.552 65.2519 270.569 72.1097 272.783C78.9251 274.984 85.889 276.699 92.7468 278.758C99.2266 280.704 105.618 283.002 111.674 286.049C117.895 289.177 123.541 293.173 128.94 297.555C137.511 304.511 146.698 314.2 157.873 316.855H172.85C176.145 316.291 179.402 315.447 182.602 314.495C189.789 312.356 196.851 309.793 204.031 307.615C219.753 302.848 235.586 298.401 251.431 294.063V294.064Z" fill="#E1E6EB"/>
<path d="M328.948 76.3016C331.783 74.8761 332.729 75.8268 332.729 77.4897C332.729 79.1526 328.948 80.5781 328.948 80.5781C328.948 80.5781 330.366 78.6778 329.421 78.202C328.475 77.7271 330.846 77.742 330.37 77.0213C329.893 76.3007 328.948 76.3007 328.948 76.3007V76.3016Z" fill="black"/>
<path d="M117.733 27.6159L79.9894 260.537L85.7673 261.19L119.734 27.8422L117.733 27.6159Z" fill="black"/>
<path d="M124.723 27.5009L127.39 27.8032L133.105 266.543L126.216 265.764L124.723 27.5009Z" fill="black"/>
<path d="M101.386 130.556L129.927 133.783L127.446 135.993L101.111 133.015L101.386 130.556Z" fill="black"/>
<path d="M84.3285 260.559L82.8142 258.836L126.781 219.759L95.0939 173.972L125.797 136.153L104.238 113.57L124.724 88.5236L112.002 65.3438L124.785 50.3737L117.752 29.3947L119.919 28.6602L127.367 50.8792L114.772 65.6303L127.477 88.7796L107.296 113.453L128.849 136.031L97.9566 174.082L129.821 220.126L84.3285 260.559Z" fill="black"/>
<path d="M96.8231 21.1719C94.7277 21.554 93.2042 23.805 93.2927 26.387L93.7917 40.9489L139.567 34.9428L139.431 20.3641L125.227 18.2903L125.167 11.7777C120.35 11.2843 115.473 10.8994 110.611 10.8855L109.686 18.8236L96.8231 21.1719Z" fill="#E1E6EB"/>
<path d="M132.342 12.5763C131.913 12.5253 131.485 12.4752 131.056 12.4251L130.596 21.0847L132.183 21.1265L132.343 12.5763H132.342Z" fill="black"/>
<path d="M283.525 7.9186L281.726 0L234.893 7.06163C228.959 8.39995 222.997 9.60935 217.003 10.6546C206.433 12.4974 195.771 13.8487 185.068 14.5749L63.1472 32.9589C62.2029 33.8743 61.2576 34.7916 60.3141 35.7116L279.968 2.59038L280.759 6.07297L52.2961 46.4886L52.594 43.4262C51.7326 44.3184 50.8786 45.2171 50.0338 46.1241L49.7267 49.2775L283.525 7.9186Z" fill="black"/>
<path d="M67.4873 45.5064L83.6386 31.5529L99.8536 39.3231L132.166 25.1191L146.672 31.4472L170.443 17.873L195.484 22.7857L221.928 10.6342L246.421 13.7736L266.01 3.99546L282.053 7.41869L282.231 6.57471L265.896 3.08841L246.272 12.8842L221.909 9.76144C221.826 9.77721 221.742 9.79297 221.658 9.80967L195.378 21.886L170.296 16.9659L146.621 30.4854L132.164 24.1787L99.8684 38.3762L83.5031 30.5346L67.3969 44.4491L57.4975 38.4773C57.2872 38.685 57.077 38.8937 56.8667 39.1024L67.4864 45.5092L67.4873 45.5064Z" fill="black"/>
<path d="M51.2927 48.2091L50.7301 47.558L67.4348 32.9562L83.5179 40.4481L99.766 28.1176L124.704 34.3742L147.859 20.8826L172.848 25.8648L195.028 13.7792L223.145 16.9761L244.171 6.36883L265.706 9.44056L280.636 0.920044L281.059 1.67035L265.876 10.3365L265.731 10.3152L244.316 7.26012L223.302 17.8618L223.175 17.847L195.199 14.6668L172.984 26.771L172.833 26.7413L148.01 21.7915L124.834 35.2961L99.956 29.0544L83.6239 41.4488L67.5777 33.9736L51.2927 48.2091Z" fill="black"/>
<path d="M280.847 0.0333862L298.733 1.29565L300.282 5.22527L282.142 7.9761L274.911 9.4016L280.847 0.0333862Z" fill="black"/>
<path d="M250.37 55.0175L282.184 6.14438L307.086 54.1512L250.369 55.0175H250.37ZM282.1 7.84718L251.972 54.1299L305.683 53.3091L282.1 7.84718Z" fill="black"/>
<path d="M243.725 53.7302L311.554 51.9652L312.868 59.0937L243.725 60.5192V53.7302Z" fill="#E1E6EB"/>
<path d="M240.908 59.664L308.737 57.8991L310.051 65.0275L240.908 66.453V59.664Z" fill="#E1E6EB"/>
<path d="M244.862 64.1232L312.691 62.3583L314.005 69.4867L244.862 70.9122V64.1232Z" fill="#E1E6EB"/>
<path d="M55.8459 185.629V179.374L8.07341 171.839C7.37158 174.545 6.71033 177.262 6.08228 179.986L55.845 185.629H55.8459Z" fill="#D7CA00"/>
<path d="M55.8458 200.771V194.516L3.98319 189.658C3.80335 190.533 3.62628 191.409 3.45105 192.284C3.06463 194.22 2.63763 196.169 2.21985 198.126L55.8458 200.77V200.771Z" fill="#D7CA00"/>
<path d="M55.8458 206.038H0.698143C0.419624 207.815 0.200129 209.593 0.0756254 211.372C-0.00553241 212.533 -0.0230551 213.664 0.0350465 214.769L55.8458 212.292V206.038Z" fill="#D7CA00"/>
<path d="M55.8458 218.254L1.88599 222.244C2.23183 222.963 2.62932 223.674 3.08583 224.379C4.43139 226.457 6.0776 228.373 7.86308 230.185L55.8458 224.508V218.253V218.254Z" fill="#D7CA00"/>
<path d="M211.081 147.022H172.854V152.694H211.081V147.022Z" fill="#D7CA00"/>
<path d="M318.986 203.201H280.759V208.874H318.986V203.201Z" fill="#D7CA00"/>
<path d="M181.676 160.58H172.854V166.495H181.676V160.58Z" fill="#D7CA00"/>
<path d="M212.061 180.643H203.24V186.557H212.061V180.643Z" fill="#D7CA00"/>
<path d="M214.021 230.422H205.2V236.337H214.021V230.422Z" fill="#D7CA00"/>
<path d="M298.782 179.35H289.96V185.264H298.782V179.35Z" fill="#D7CA00"/>
<path d="M200.789 194.094H191.968V200.008H200.789V194.094Z" fill="#D7CA00"/>
<path d="M468.244 168.568H459.423V174.483H468.244V168.568Z" fill="#D7CA00"/>
<path d="M476.01 189.499H467.189V195.414H476.01V189.499Z" fill="#D7CA00"/>
<path d="M466.064 200.245H457.242V206.159H466.064V200.245Z" fill="#D7CA00"/>
<path d="M243.117 105.623L265.416 100.448C262.924 125.525 270.071 125.813 268.928 139.613L287.51 127.251L302.662 155.139C302.662 155.139 268.07 175.551 250.058 174.689C236.622 144.501 243.116 105.624 243.116 105.624L243.117 105.623Z" fill="#FFC89F"/>
<mask id="mask0_2_904" style="mask-type:luminance" maskUnits="userSpaceOnUse" x="241" y="100" width="62" height="75">
<path d="M243.117 105.623L265.416 100.448C262.924 125.525 270.071 125.813 268.928 139.613L287.51 127.251L302.662 155.139C302.662 155.139 268.07 175.551 250.058 174.689C236.622 144.501 243.116 105.624 243.116 105.624L243.117 105.623Z" fill="white"/>
</mask>
<g mask="url(#mask0_2_904)">
<path d="M267.927 113.882L248.201 119.632C248.201 119.632 247.915 142.057 249.916 147.232C251.918 152.408 256.206 162.469 256.206 162.469C263.792 156.695 266.595 148.176 269.07 139.47L271.929 137.457C271.929 137.457 265.068 158.444 268.499 159.594C271.929 160.744 282.793 154.707 282.793 154.707L275.359 126.819L283.078 123.081L297.944 165.344L253.06 183.456L236.479 176.268C236.479 176.268 235.05 127.106 235.336 126.531C235.621 125.956 241.625 108.131 241.625 108.131H269.928L267.927 113.881V113.882Z" fill="#FBD2B7"/>
</g>
<path d="M243.117 105.623L265.416 100.448C262.924 125.525 270.071 125.813 268.928 139.613L287.51 127.251L302.662 155.139C302.662 155.139 268.07 175.551 250.058 174.689C236.622 144.501 243.116 105.624 243.116 105.624L243.117 105.623Z" stroke="#0F1710" stroke-miterlimit="10"/>
<path d="M238.623 114.026C238.623 114.026 265.642 112.588 266.314 112.588C266.985 112.588 267.991 100.514 267.991 100.514C267.991 100.514 272.354 94.476 275.373 93.326C278.392 92.1759 283.09 78.6638 280.406 76.3637C277.721 74.0637 249.201 73.2011 246.853 74.6387C244.504 76.0762 243.497 96.7761 243.497 96.7761L238.623 114.026Z" fill="#D7CA00"/>
<mask id="mask1_2_904" style="mask-type:luminance" maskUnits="userSpaceOnUse" x="238" y="73" width="44" height="42">
<path d="M238.623 114.026C238.623 114.026 265.642 112.588 266.314 112.588C266.985 112.588 267.991 100.514 267.991 100.514C267.991 100.514 272.354 94.476 275.373 93.326C278.392 92.1759 283.09 78.6638 280.406 76.3637C277.721 74.0637 249.201 73.2011 246.853 74.6387C244.504 76.0762 243.497 96.7761 243.497 96.7761L238.623 114.026Z" fill="white"/>
</mask>
<g mask="url(#mask1_2_904)">
<g style="mix-blend-mode:multiply">
<path d="M261.351 110.719H245.056L247.343 98.9324L248.201 88.2945L258.779 90.5946C258.779 90.5946 254.776 95.4823 256.206 97.2073C257.635 98.9324 269.928 101.52 269.928 101.52C269.928 101.52 283.936 83.1203 284.222 80.8202C284.508 78.5201 256.205 76.5075 256.205 76.5075C256.205 76.5075 247.914 76.5075 247.628 78.8076C247.342 81.1077 240.767 87.1454 238.479 94.3322C236.192 101.52 233.333 117.907 233.333 117.907L271.07 113.882L270.675 94.7728L264.053 110.687L261.349 110.719H261.351Z" fill="black"/>
</g>
</g>
<path d="M207.177 73.7762L427.755 96.9606L426.04 106.161L207.177 79.8139V73.7762Z" fill="#FBD2B7" stroke="#0F1710" stroke-miterlimit="10"/>
<g style="mix-blend-mode:multiply">
<path d="M232.313 82.6881L238.48 80.8192L239.435 77.1669L281.935 81.6335V85.9944L283.328 88.9808L232.313 82.6881Z" fill="#FBD2B7"/>
</g>
<g style="mix-blend-mode:multiply">
<path d="M331.25 86.8171L390.855 93.082L393.43 100.37L406.581 101.52L411.806 95.2847L410.885 104.337L322.473 93.6932L331.25 86.8171Z" fill="#FBD2B7"/>
</g>
<path d="M273.269 78.3763C273.269 78.3763 269.151 89.3101 270.228 89.8647C271.305 90.4193 274.511 89.8647 274.511 89.8647L281.177 78.3763H273.269Z" fill="#FFC89F" stroke="#0F1710" stroke-miterlimit="10"/>
<path d="M268.274 77.8013C268.274 77.8013 263.011 89.0318 264.088 89.5874C265.166 90.142 268.371 89.5874 268.371 89.5874L276.181 77.8013H268.274Z" fill="#FFC89F" stroke="#0F1710" stroke-miterlimit="10"/>
<path d="M262.144 76.6513C262.144 76.6513 257.74 89.0319 258.817 89.5874C259.894 90.142 263.1 89.5874 263.1 89.5874L270.052 76.6513H262.144Z" fill="#FFC89F" stroke="#0F1710" stroke-miterlimit="10"/>
<path d="M255.704 76.6513C255.704 76.6513 254.733 81.8979 254.038 84.3362C250.209 83.839 248.822 86.5231 250.88 87.5767C253.5 88.9169 257.933 87.2196 259.317 84.8889L262.67 76.6513H255.704Z" fill="#FFC89F" stroke="#0F1710" stroke-miterlimit="10"/>
<path d="M270.676 82.688C270.676 82.688 277.052 83.5506 278.058 83.5506C279.064 83.5506 280.407 85.8507 280.407 89.8758L274.031 90.1633L273.696 87.0007C273.696 87.0007 268.663 85.8507 270.676 82.688Z" fill="#FFC89F" stroke="#0F1710" stroke-miterlimit="10"/>
<path d="M258.596 96.4886C256.809 91.2373 268.327 89.0133 273.36 91.8884V88.4383H280.742C280.742 88.4383 283.426 93.326 280.742 96.4886C278.057 99.6512 260.945 103.389 258.596 96.4886Z" fill="#D7CA00"/>
<path d="M429.881 140.476C429.881 140.476 454.467 173.826 457.898 181.876C461.329 189.926 457.898 250.588 457.898 250.588H433.598C433.598 250.588 430.167 228.163 428.451 218.963C426.736 209.762 419.589 191.937 422.734 178.138C422.734 178.138 412.727 170.375 407.296 158.876C401.864 147.376 429.881 140.476 429.881 140.476Z" fill="#FFC89F"/>
<mask id="mask2_2_904" style="mask-type:luminance" maskUnits="userSpaceOnUse" x="406" y="140" width="54" height="111">
<path d="M429.881 140.476C429.881 140.476 454.467 173.826 457.898 181.876C461.329 189.926 457.898 250.588 457.898 250.588H433.598C433.598 250.588 430.167 228.163 428.451 218.963C426.736 209.762 419.589 191.937 422.734 178.138C422.734 178.138 412.727 170.375 407.296 158.876C401.864 147.376 429.881 140.476 429.881 140.476Z" fill="white"/>
</mask>
<g mask="url(#mask2_2_904)">
<path d="M437.028 150.319L422.019 169.657L430.024 176.558C430.024 176.558 423.162 184.32 428.88 206.17C434.598 228.02 439.744 230.32 439.744 230.32L455.468 228.595L462.044 191.508V238.658L416.302 246.421L415.73 178.283L404.581 166.209L438.315 143.497L437.028 150.321" fill="#FBD2B7"/>
</g>
<path d="M429.881 140.476C429.881 140.476 454.467 173.826 457.898 181.876C461.329 189.926 457.898 250.588 457.898 250.588H433.598C433.598 250.588 430.167 228.163 428.452 218.963C426.736 209.762 419.589 191.937 422.734 178.138C422.734 178.138 412.727 170.375 407.296 158.876C401.864 147.376 429.881 140.476 429.881 140.476Z" stroke="#0F1710" stroke-miterlimit="10"/>
<path d="M433.698 123.153L410.635 120.78C409.857 120.7 409.291 120 409.371 119.218L413.361 80.0086C413.44 79.2259 414.135 78.6564 414.914 78.7371L437.976 81.1105C438.755 81.1902 439.321 81.8895 439.241 82.6723L435.251 121.881C435.172 122.664 434.477 123.234 433.698 123.153Z" fill="#D7CA00" stroke="#0F1710" stroke-miterlimit="10"/>
<path d="M277.591 132.447C277.591 132.447 309.237 102.813 324.961 103.675C340.685 104.538 366.909 100.8 385.855 100.8C417.874 100.8 438.172 147.088 438.172 147.088L412.156 170.375L397.682 153.508L392.716 186.187L316.099 174.4L318.386 149.963L289.797 164.05L277.591 132.447Z" fill="#FBEBE3"/>
<mask id="mask3_2_904" style="mask-type:luminance" maskUnits="userSpaceOnUse" x="277" y="100" width="162" height="87">
<path d="M277.591 132.447C277.591 132.447 309.237 102.813 324.961 103.675C340.685 104.538 366.909 100.8 385.855 100.8C417.874 100.8 438.172 147.088 438.172 147.088L412.156 170.375L397.682 153.508L392.716 186.187L316.099 174.4L318.386 149.963L289.797 164.05L277.591 132.447Z" fill="white"/>
</mask>
<g mask="url(#mask3_2_904)">
<g style="mix-blend-mode:multiply">
<path d="M277.646 129.407C277.646 129.407 292.512 148.381 295.657 150.107C298.802 151.832 314.525 140.331 314.525 140.331L299.088 125.957C299.088 125.957 312.238 132.282 315.955 133.144C319.671 134.007 313.318 113.763 319.671 100.369C326.025 86.9757 329.964 100.944 329.964 100.944C329.964 100.944 324.246 127.682 339.398 136.306C362.044 149.197 383.996 151.543 383.996 151.543L390 136.306L391.716 123.081C391.716 123.081 395.432 144.069 400.293 148.381C405.153 152.694 417.731 160.168 417.731 160.168L441.174 143.494L413.729 176.557L398.863 159.882L396.319 185.424L302.805 176.269L287.082 167.931L273.36 130.844L277.648 129.407H277.646Z" fill="black"/>
</g>
</g>
<path d="M277.591 132.447C277.591 132.447 309.237 102.813 324.961 103.675C340.685 104.538 366.909 100.8 385.855 100.8C417.874 100.8 438.172 147.088 438.172 147.088L412.156 170.375L397.682 153.508L392.716 186.187L316.099 174.4L318.386 149.963L289.797 164.05L277.591 132.447Z" stroke="#0F1710" stroke-miterlimit="10"/>
<g style="mix-blend-mode:multiply">
<path d="M348.37 102.992C348.37 102.992 343.829 109.714 345.83 113.163C347.831 116.613 370.879 118.127 384.138 100.801L348.37 102.992Z" fill="#D7CA00"/>
</g>
<path d="M446.19 294.324C444.714 292.425 440.655 281.668 440.655 281.668L432.167 283.882C432.167 283.882 437.167 294.599 440.491 296.152C442.463 296.072 444.431 295.908 446.385 295.651C446.608 295.274 446.576 294.821 446.19 294.323V294.324Z" fill="#FFC89F" stroke="#0F1710" stroke-miterlimit="10"/>
<path d="M453.939 293.374C452.463 291.476 448.403 280.718 448.403 280.718L439.916 282.933C439.916 282.933 445.082 294.007 448.403 295.272C448.452 295.29 448.502 295.309 448.551 295.326C450.475 295.003 452.382 294.586 454.263 294.069C454.231 293.85 454.128 293.617 453.939 293.374Z" fill="#FFC89F" stroke="#0F1710" stroke-miterlimit="10"/>
<path d="M455.784 280.719L447.297 282.934C447.297 282.934 451.016 290.906 454.172 294.095C456.312 293.51 458.418 292.795 460.478 291.939C458.689 288.419 455.784 280.72 455.784 280.72V280.719Z" fill="#FFC89F" stroke="#0F1710" stroke-miterlimit="10"/>
<path d="M465.949 289.282C464.156 285.708 461.319 278.188 461.319 278.188L452.831 280.403C452.831 280.403 456.972 289.277 460.222 292.044C461.012 291.72 461.796 291.378 462.573 291.013C463.722 290.472 464.846 289.894 465.948 289.282H465.949Z" fill="#FFC89F" stroke="#0F1710" stroke-miterlimit="10"/>
<path d="M322.102 133.288L311.809 154.275C311.809 154.275 314.096 195.388 311.809 222.413C309.522 249.438 294.37 317 294.37 317H348.403L359.553 258.351L371.56 317H419.303C419.303 317 407.01 224.425 400.435 207.751C393.859 191.076 397.004 169.226 397.004 169.226L326.875 133.289H322.103L322.102 133.288Z" fill="#D7CA00"/>
<mask id="mask4_2_904" style="mask-type:luminance" maskUnits="userSpaceOnUse" x="294" y="133" width="126" height="184">
<path d="M322.102 133.288L311.809 154.275C311.809 154.275 314.096 195.388 311.809 222.413C309.522 249.438 294.37 317 294.37 317H348.403L359.553 258.351L371.56 317H419.303C419.303 317 407.01 224.425 400.435 207.751C393.859 191.076 397.004 169.226 397.004 169.226L326.875 133.289H322.103L322.102 133.288Z" fill="white"/>
</mask>
<g mask="url(#mask4_2_904)">
<g style="mix-blend-mode:multiply">
<path d="M404.58 199.844C404.58 199.844 388.857 201.857 377.421 199.844C365.986 197.831 364.842 186.044 364.842 186.044L387.999 179.719L400.578 188.345H404.58V171.382L320.816 124.807L326.552 135.534L305.664 143.495L294.515 246.419L288.493 284.458C295.714 282.821 302.978 281.389 310.271 280.294L315.957 255.619L341.686 250.444L347.119 199.844L319.387 197.544V157.869L329.019 140.146L350.136 179.637C350.136 179.637 357.124 199.557 362.842 204.444C368.56 209.332 397.148 213.932 397.148 213.932L406.641 291.474C412.155 292.908 417.708 294.159 423.33 295.018L404.581 199.845L404.58 199.844Z" fill="black"/>
</g>
<g style="mix-blend-mode:multiply">
<path d="M373.798 282.456L364.841 258.207L349.69 240.382L352.263 250.445L347.239 278.308C356.267 278.872 365.07 280.403 373.798 282.458V282.456Z" fill="#D7CA00"/>
</g>
<g style="mix-blend-mode:multiply">
<path d="M407.756 300.588L408.868 309.668L397.147 315.419L381.995 304.781L389.628 295.653C375.145 291.436 360.797 287.62 345.7 286.845L342.829 302.768L323.675 306.506L314.526 305.931L305.092 302.768L308.16 289.452C304.195 290.124 300.244 290.897 296.31 291.746C293.206 292.416 290.105 293.114 287.007 293.836L283.369 316.814L427.659 316.999L425.069 303.848C419.277 303.122 413.491 301.967 407.756 300.587V300.588Z" fill="#D7CA00"/>
</g>
</g>
<path d="M318.958 101.664H328.964C328.964 101.664 325.321 120.957 331.018 137.71C331.855 140.174 330.702 142.879 328.372 144.015C325.469 145.43 321.998 143.852 321.145 140.723C319.377 134.237 317.37 121.893 318.959 101.665L318.958 101.664Z" fill="#D7CA00"/>
<path d="M428.737 233.913L461.329 231.326L459.328 250.588C463.616 257.488 458.756 266.687 461.329 275.025C463.902 283.363 458.184 284.226 449.608 284.226C441.032 284.226 435.028 286.813 431.026 284.226C427.023 281.638 428.167 261.513 433.027 250.589L428.738 233.914L428.737 233.913Z" fill="#D7CA00"/>
<mask id="mask5_2_904" style="mask-type:luminance" maskUnits="userSpaceOnUse" x="428" y="231" width="34" height="55">
<path d="M428.737 233.913L461.329 231.326L459.328 250.588C463.616 257.488 458.756 266.687 461.329 275.025C463.902 283.363 458.184 284.226 449.608 284.226C441.032 284.226 435.028 286.813 431.026 284.226C427.023 281.638 428.167 261.513 433.027 250.589L428.738 233.914L428.737 233.913Z" fill="white"/>
</mask>
<g mask="url(#mask5_2_904)">
<g style="mix-blend-mode:multiply">
<path d="M430.789 232.745L437.17 247.856L445.176 249.006L436.313 253.607C436.313 253.607 430.881 269.994 432.882 275.457C434.883 280.919 450.607 279.769 451.75 279.482C452.894 279.194 457.754 278.332 458.04 267.407C458.326 256.482 455.549 250.589 455.549 250.589L464.33 227.733V263.382L464.871 286.964L427.165 290.407L422.877 268.845L426.593 246.42L423.734 232.908L430.79 232.746L430.789 232.745Z" fill="black"/>
</g>
</g>
<path d="M356.98 171.525C356.98 171.525 358.695 189.062 364.985 197.688C371.275 206.313 404.563 208.952 404.563 208.952L401.419 197.165C401.419 197.165 373.847 198.839 370.131 192.513C366.416 186.188 364.985 171.526 364.985 171.526H356.98V171.525Z" fill="#D7CA00"/>
<path d="M312.096 198.263L308.132 194.166L307.56 186.117L319.243 185.613V178.425L324.389 185.901V194.813L319.243 197.688L321.244 221.55L312.954 222.7L312.096 198.263Z" fill="#FBEBE3" stroke="#0F1710" stroke-miterlimit="10"/>
<path d="M315.241 178.425L315.813 185.901L310.952 186.188L315.241 178.425Z" fill="#FBEBE3" stroke="#0F1710" stroke-miterlimit="10"/>
<path d="M312.096 189.063L316.67 188.488L316.956 191.076L312.382 191.651L312.096 189.063Z" fill="#FBEBE3" stroke="#0F1710" stroke-miterlimit="10"/>
<path d="M332.682 136.263C332.682 136.263 351.549 176.7 356.98 179.288C362.412 181.876 397.004 169.225 397.004 169.225L332.682 136.263Z" fill="#D7CA00"/>
<path d="M333.252 184.176L331.25 188.488V195.675L336.11 204.588H339.827L344.115 196.538L344.401 187.626L342.685 183.601H339.827V187.626L341.542 188.488L341.257 190.788L339.541 191.651L337.826 197.688L335.814 191.825L334.099 191.25L334.109 188.488L335.539 187.626V184.176H333.252Z" fill="#FBEBE3" stroke="#0F1710" stroke-miterlimit="10"/>
<path d="M308.094 199.988H326.39L319.814 246.563H308.665L308.094 199.988Z" fill="#D7CA00"/>
<path d="M328.963 199.988H347.26L339.541 246.563H328.391L328.963 199.988Z" fill="#D7CA00"/>
<path d="M373.423 71.6291C373.423 71.6291 373.295 91.331 375.865 104.774C375.865 104.774 363.269 114.855 349.631 111.198L351.945 87.4153L373.424 71.6291H373.423Z" fill="#FFC89F"/>
<mask id="mask6_2_904" style="mask-type:luminance" maskUnits="userSpaceOnUse" x="349" y="71" width="27" height="41">
<path d="M373.423 71.6291C373.423 71.6291 373.295 91.331 375.865 104.774C375.865 104.774 363.269 114.855 349.631 111.198L351.945 87.4153L373.424 71.6291H373.423Z" fill="white"/>
</mask>
<g mask="url(#mask6_2_904)">
<path d="M373.051 74.9874C373.051 74.9874 372.847 91.4571 362.841 94.3322C352.835 97.2073 353.406 107.269 353.406 107.269C353.406 107.269 358.552 110.432 363.985 108.994C369.417 107.557 376.645 100.944 376.645 100.944L378.293 106.84L350.548 117.907L337.398 111.007L347.118 86.2819L373.052 74.9874" fill="#FBD2B7"/>
</g>
<path d="M373.423 71.6291C373.423 71.6291 373.295 91.331 375.865 104.774C375.865 104.774 363.269 114.855 349.631 111.198L351.945 87.4153L373.424 71.6291H373.423Z" stroke="#0F1710" stroke-miterlimit="10"/>
<path d="M343.627 67.5817C343.627 67.5817 337.887 75.6496 339.827 78.0888C340.855 79.3817 344.402 78.3763 344.402 78.3763C344.402 78.3763 343.99 90.2969 345.533 93.1405C347.075 95.984 370.982 92.8817 372.781 77.3719C374.58 61.8621 373.809 59.0176 373.809 59.0176L344.399 60.8604L343.628 67.5817H343.627Z" fill="#FFC89F"/>
<mask id="mask7_2_904" style="mask-type:luminance" maskUnits="userSpaceOnUse" x="339" y="59" width="35" height="36">
<path d="M343.627 67.5817C343.627 67.5817 337.887 75.6496 339.827 78.0888C340.855 79.3817 344.402 78.3763 344.402 78.3763C344.402 78.3763 343.99 90.2969 345.533 93.1405C347.075 95.984 370.982 92.8817 372.781 77.3719C374.58 61.8621 373.809 59.0176 373.809 59.0176L344.399 60.8604L343.628 67.5817H343.627Z" fill="white"/>
</mask>
<g mask="url(#mask7_2_904)">
<path d="M375.134 70.4698C375.134 70.4698 352.835 65.8696 348.26 66.7321C343.686 67.5947 337.396 73.0574 338.54 77.0825C339.683 81.1077 344.544 78.2326 344.544 78.2326C344.544 78.2326 354.264 79.6701 355.694 83.6953C357.123 87.7204 347.567 94.7542 347.567 94.7542L330.251 82.5452L338.907 62.1171L360.84 55.8076L380.852 63.858L375.134 70.4707V70.4698Z" fill="#FBD2B7"/>
</g>
<path d="M343.627 67.5817C343.627 67.5817 337.887 75.6496 339.827 78.0888C340.855 79.3817 344.402 78.3763 344.402 78.3763C344.402 78.3763 343.99 90.2969 345.533 93.1405C347.075 95.984 370.982 92.8817 372.781 77.3719C374.58 61.8621 373.809 59.0176 373.809 59.0176L344.399 60.8604L343.628 67.5817H343.627Z" stroke="#0F1710" stroke-miterlimit="10"/>
<path d="M359.414 63.9294C363.27 66.7729 364.547 72.9136 364.547 72.9136L369.431 73.4302C369.431 73.4302 370.621 69.0165 372.266 69.8744C373.267 70.3956 372.819 89.4854 373.99 90.5946C373.99 90.5946 380.235 74.0108 378.95 69.3578C377.664 64.7047 366.611 63.154 359.414 63.9294Z" fill="black"/>
<path d="M382.035 69.3578C382.035 69.3578 380.493 74.2696 379.207 76.079C377.922 77.8885 373.809 68.5824 368.41 65.9976L382.035 69.3578Z" fill="#D7CA00" stroke="#0F1710" stroke-miterlimit="10"/>
<path d="M370.21 68.8412C378.435 63.154 380.749 76.8553 370.981 78.9226L370.21 68.8412Z" fill="#FFC89F"/>
<path d="M370.21 68.8412C378.435 63.154 380.749 76.8553 370.981 78.9226" stroke="#0F1710" stroke-miterlimit="10"/>
<path d="M334.712 63.5565C341.861 63.435 363.719 62.681 384.173 73.7752C384.173 73.7752 387.477 68.4999 385.064 65.9818C382.653 63.4638 386.794 43.5588 367.419 39.4261C348.045 35.2933 341.405 50.051 338.477 57.977C337.879 58.6614 335.695 60.7111 334.15 62.144C333.603 62.6513 333.967 63.5695 334.711 63.5565H334.712Z" fill="#FBEBE3" stroke="#0F1710" stroke-miterlimit="10"/>
<path d="M344.37 79.6497C350.363 79.3817 353.654 77.9887 355.818 79.7471C358.642 82.0435 358.546 86.9924 355.122 93.4688C343.973 97.2064 340.632 91.1919 344.37 79.6497Z" fill="black"/>
<path d="M310.667 307.225L306.378 304.924L302.09 302.625L303.233 300.613L313.24 298.025L315.241 296.875H313.811L314.383 294.863L315.241 296.013H318.958L326.676 298.025L335.825 298.6L335.253 296.875L337.254 296.013L336.682 298.025L346.688 302.625L343.829 304.349L336.682 303.774L338.969 306.362L338.684 307.225H337.54L337.254 306.075L334.681 307.225L324.389 308.662L310.667 307.225Z" fill="#FBEBE3" stroke="#0F1710" stroke-miterlimit="10"/>
<path d="M304.663 301.763C304.663 301.763 313.24 298.025 319.243 298.025C325.245 298.025 342.685 301.763 342.685 301.763L326.962 303.2L336.11 305.501C336.11 305.501 325.246 308.376 315.813 306.938C306.378 305.501 304.664 301.763 304.664 301.763H304.663Z" fill="#FFC89F" stroke="#0F1710" stroke-miterlimit="10"/>
<path d="M406.724 290.55L402.821 290.452C404.949 291.035 407.081 291.598 409.22 292.128L406.723 290.549L406.724 290.55Z" fill="#FBEBE3" stroke="#0F1710" stroke-miterlimit="10"/>
<path d="M406.71 300.334C401.01 298.934 395.364 297.325 389.817 295.708C384.335 294.111 378.873 292.571 373.384 291.228L368.416 295.725L374.134 298.6L370.417 304.925L380.71 306.076L384.14 310.676L388.143 315.276L385.856 310.676L384.998 307.801L387.285 304.925L395.004 302.913L397.577 307.801H401.58L399.007 304.925L406.711 300.334H406.71Z" fill="#FBEBE3" stroke="#0F1710" stroke-miterlimit="10"/>
<path d="M389.817 295.708C386.748 294.814 383.688 293.939 380.623 293.105C377.77 293.292 375.733 293.368 375.277 293.138L371.846 294.288L378.707 298.6L371.846 303.775L382.424 304.925C382.424 304.925 390.715 300.325 399.005 299.75C400.273 299.662 401.501 299.507 402.671 299.307C398.343 298.172 394.051 296.942 389.817 295.708Z" fill="#FFC89F" stroke="#0F1710" stroke-miterlimit="10"/>
<path d="M345.321 83.1648C346.922 82.6064 352.656 82.5851 353.513 83.4476C354.371 84.3102 349.348 87.9671 346.774 86.8171C344.201 85.667 344.32 83.5135 345.321 83.1648Z" fill="#FFC89F" stroke="#0F1710" stroke-miterlimit="10"/>
<path d="M341.618 56.5645C341.618 56.5645 345.963 42.0044 358.868 41.7159C371.773 41.4275 378.54 49.7291 378.54 49.7291C378.54 49.7291 363.347 46.2762 357.926 49.7403C352.506 53.2043 352.183 57.389 352.183 57.389C352.183 57.389 367.596 62.1552 369.689 64.2614C371.78 66.3677 345.876 59.8115 337.404 61.0942L341.618 56.5645Z" fill="white"/>
<path d="M415.3 82.9756L423.019 84.9882L420.446 96.4886L414.443 93.326L415.3 82.9756Z" fill="#D7CA00" stroke="#0F1710" stroke-miterlimit="10"/>
<path d="M429.595 84.9882H436.456L432.453 118.913H425.593L429.595 84.9882Z" fill="#D7CA00" stroke="#0F1710" stroke-miterlimit="10"/>
<path d="M360.313 57.4094C360.313 57.4094 375.837 51.8215 384.82 65.622" stroke="#0F1710" stroke-miterlimit="10"/>
<path d="M220.706 302.683H207.65L203.239 285.376H110.298C110.758 285.597 111.218 285.821 111.674 286.051C117.895 289.179 123.541 293.175 128.94 297.557C137.575 304.565 146.836 314.348 158.123 316.916L172.555 316.907C175.951 316.342 179.307 315.478 182.602 314.498C189.789 312.359 196.851 309.796 204.031 307.618C209.577 305.936 215.137 304.295 220.706 302.684V302.683Z" fill="#D7CA00"/>
<path d="M123.11 267.9L89.2515 277.141L89.3437 277.765C90.4799 278.09 91.6152 278.42 92.7468 278.76C99.2265 280.706 105.618 283.004 111.674 286.051C114.512 287.478 117.23 289.087 119.86 290.83L123.11 288.251V267.9Z" fill="black"/>
<path d="M89.2515 277.14L99.861 267.9H123.11L111.716 277.14H89.2515Z" fill="#D7CA00"/>
<path d="M209.856 302.683H207.651L208.449 306.287C209.136 306.081 209.824 305.876 210.512 305.671L209.856 302.682V302.683Z" fill="#FB6F13"/>
<path d="M210.321 314.729L210.476 315.429L212.743 315.831L212.367 314.119C211.685 314.322 211.003 314.526 210.321 314.729H210.321Z" fill="#FB6F13"/>
</g>
<defs>
<clipPath id="clip0_2_904">
<rect width="502" height="317" fill="white"/>
</clipPath>
</defs>
</svg>
