<svg width="480" height="456" viewBox="0 0 480 456" fill="none" xmlns="http://www.w3.org/2000/svg">
<g clip-path="url(#clip0_6_3414)">
<path d="M48.3774 430.203C48.3774 430.203 31.4503 399.294 97.1838 339.756C121.702 317.549 77.0813 250.004 40.6847 193.493C4.28806 136.981 116.376 48.4832 150.943 96.464C185.51 144.445 218.245 155.982 222.491 125.159C227.907 85.8389 81.4547 48.7698 231.501 26.0068C351.52 7.79945 451.119 50.6144 365.22 155.106C279.32 259.598 296.165 251.046 367.504 197.061C422.455 155.478 494.808 254.638 449.071 311.149C369.292 409.716 422.455 430.201 422.455 430.201H48.3774V430.203Z" fill="#D7CA00" fill-opacity="0.15"/>
<path d="M449.071 428.87H22.1945V431.535H449.071V428.87Z" fill="black"/>
<path d="M102.862 430.32L100.207 430.085C100.226 429.877 102.126 408.959 109.235 380.596C113.41 363.938 118.54 347.997 124.483 333.217C131.919 314.725 140.653 298.003 150.449 283.519L152.657 285.013C130.705 317.48 118.334 355.265 111.822 381.245C104.763 409.406 102.88 430.115 102.863 430.321L102.862 430.32Z" fill="black"/>
<path d="M90.0734 430.293L87.415 430.113C87.439 429.759 89.8176 394.185 90.4105 353.705C91.1927 300.236 88.5197 262.544 82.6832 244.704L85.2164 243.875C88.5344 254.014 90.8503 270.143 92.1002 291.813C93.0969 309.088 93.4247 329.929 93.0769 353.756C92.484 394.304 90.1001 429.938 90.0761 430.293H90.0734Z" fill="black"/>
<path d="M73.0251 430.276C73.0158 430.096 71.9471 412.047 65.0726 390.657C58.7577 371.009 46.1081 344.428 21.6975 329.372L23.0967 327.104C34.2059 333.956 43.8854 343.652 51.8659 355.923C58.2287 365.707 63.5335 377.14 67.6297 389.906C74.5961 411.61 75.6755 429.946 75.6848 430.128L73.0238 430.275L73.0251 430.276Z" fill="black"/>
<path d="M115.172 430.508L112.577 429.899C112.625 429.695 117.44 409.224 122.712 389.18C125.48 378.661 131.129 375.672 135.669 373.272C140.167 370.893 143.417 369.174 142.925 360.809C142.627 355.742 142.029 351.997 141.548 348.988C140.284 341.086 139.707 337.48 146.904 327.461C151.122 321.59 154.854 319.704 157.581 318.327C161.118 316.54 162.895 315.643 163.179 306.844C163.26 304.31 163.297 302.202 163.33 300.341C163.512 290.132 163.534 288.82 170.081 279.465C171.816 276.986 170.976 274.357 169.966 272.587C167.469 268.209 160.701 263.797 154.124 264.305C149.394 264.67 145.858 267.576 143.901 272.708C140.888 280.605 138.286 285.758 135.463 289.418C132.748 292.937 129.977 294.946 126.47 297.488C124.891 298.633 123.1 299.931 121.103 301.529C110.909 309.685 107.787 313.543 109.863 328.05C111.142 336.993 106.321 347.125 102.069 356.063C99.1227 362.252 96.3417 368.099 96.5495 371.853C97.0812 381.429 93.3635 428.318 93.2049 430.309L90.5479 430.097C90.5865 429.611 94.4095 381.398 93.8885 372.001C93.642 367.569 96.4323 361.706 99.6623 354.918C103.753 346.32 108.39 336.575 107.224 328.429C106.098 320.56 106.44 315.63 108.401 311.414C110.355 307.216 113.787 303.97 119.437 299.45C121.484 297.811 123.301 296.495 124.906 295.331C131.602 290.477 135.29 287.804 141.412 271.759C142.632 268.561 144.407 266.063 146.689 264.333C148.762 262.761 151.195 261.858 153.92 261.647C157.361 261.381 161.172 262.274 164.65 264.161C167.992 265.974 170.702 268.497 172.282 271.266C174.249 274.714 174.243 278.169 172.265 280.994C166.185 289.681 166.17 290.49 165.995 300.388C165.962 302.256 165.925 304.376 165.842 306.929C165.689 311.695 165.047 314.738 163.761 316.796C162.487 318.835 160.688 319.744 158.783 320.706C156.164 322.028 152.906 323.675 149.07 329.016C142.514 338.143 142.967 340.982 144.181 348.567C144.671 351.634 145.281 355.451 145.588 360.652C146.181 370.728 141.681 373.108 136.916 375.627C132.625 377.897 127.761 380.469 125.292 389.857C120.027 409.865 115.221 430.303 115.173 430.507L115.172 430.508Z" fill="black"/>
<path d="M65.1232 430.433C65.0766 430.165 60.2981 403.536 50.2149 396.475C44.3265 392.352 41.0085 389.082 38.7645 385.186C36.5072 381.269 35.2999 376.537 34.7269 369.366C34.579 367.518 34.4724 365.867 34.3765 364.412C33.7809 355.273 33.6743 353.627 27.4967 350.742C25.3446 349.737 23.3352 349.222 21.3924 348.723C16.3647 347.433 12.0234 346.319 10.7508 337.434C10.1232 333.052 8.15371 331.219 5.87242 329.098C2.85425 326.289 -0.566347 323.108 0.0812608 313.724C0.414392 308.892 3.09277 307.122 5.28078 306.488C10.6948 304.919 18.6314 308.603 22.8795 310.94C28.9678 314.288 34.695 318.768 37.1308 322.09C40.7273 326.995 43.5683 328.006 46.8596 329.178C48.7038 329.835 50.6107 330.513 52.7627 331.882C53.2691 332.204 53.7794 332.522 54.3204 332.858C59.8464 336.292 66.7236 340.568 67.7643 350.46C67.8122 350.918 67.8589 351.369 67.9055 351.813C68.8649 361.048 69.4446 366.621 75.1518 370.854C78.162 373.085 79.9542 376.527 80.6298 381.374C81.2068 385.511 80.9363 390.321 80.6751 394.974C80.6365 395.666 80.5978 396.359 80.5605 397.052C80.0368 407.003 80.9629 429.917 80.9736 430.148L78.3112 430.257C78.3019 430.025 77.3705 406.988 77.9008 396.913C77.9368 396.216 77.9768 395.52 78.0154 394.826C78.5298 385.679 79.0161 377.039 73.5648 372.997C70.4666 370.7 68.4585 367.885 67.2486 364.14C66.1546 360.756 65.7375 356.74 65.2551 352.091C65.2085 351.649 65.1618 351.2 65.1139 350.742C64.2091 342.147 58.4672 338.578 52.9133 335.125C52.3909 334.799 51.8499 334.464 51.3316 334.134C49.434 332.927 47.6711 332.299 45.9655 331.691C42.5715 330.482 39.0617 329.234 34.9815 323.668C32.7895 320.678 27.2848 316.405 21.5949 313.277C14.9789 309.64 9.30368 308.099 6.02166 309.05C4.73044 309.424 2.98617 310.334 2.73965 313.908C2.17999 322.022 4.73311 324.397 7.68732 327.146C10.0033 329.302 12.6283 331.743 13.3892 337.057C14.4086 344.181 17.2868 344.919 22.0546 346.143C24.0201 346.647 26.2467 347.218 28.624 348.329C36.2314 351.879 36.4352 354.994 37.0362 364.24C37.1308 365.687 37.2374 367.328 37.384 369.155C38.4114 381.997 41.2297 386.931 51.7446 394.293C62.7313 401.986 67.5511 428.835 67.7509 429.973L65.1259 430.435L65.1232 430.433Z" fill="black"/>
<path d="M78.3072 379.223C78.3072 379.062 78.2126 362.938 73.109 349.474C70.468 342.504 68.8329 337.39 68.2973 331.87C67.7816 326.547 68.252 320.629 69.9216 311.445C71.5646 302.404 68.8036 295.859 65.8787 288.93C63.275 282.76 60.5833 276.38 60.8391 267.926C61.0923 259.553 63.3736 256.115 65.3857 253.083C67.6417 249.681 69.4233 246.994 67.563 237.273C66.9794 234.226 68.0228 231.061 70.4999 228.362C72.7386 225.923 76.0206 224.053 79.5065 223.233C83.5507 222.282 87.6056 222.776 90.9249 224.623C94.8132 226.789 97.6635 230.776 99.1679 236.153C103.336 251.058 103.77 260.249 104.058 266.329C104.351 272.536 104.499 275.652 107.92 279.319C112.601 284.336 111.711 290.177 110.681 296.94C109.944 301.779 109.109 307.265 110.268 313.348L107.649 313.846C106.405 307.314 107.276 301.589 108.047 296.537C109.01 290.208 109.772 285.209 105.972 281.136C101.882 276.753 101.7 272.876 101.396 266.453C101.097 260.136 100.688 251.483 96.6015 236.869C93.7152 226.548 86.1931 224.397 80.1181 225.826C77.1399 226.527 74.3509 228.106 72.4641 230.161C70.5706 232.224 69.7604 234.57 70.1815 236.769C72.2469 247.56 69.9936 250.957 67.607 254.554C65.7028 257.424 63.7347 260.392 63.5042 268.005C63.2656 275.876 65.8428 281.985 68.3346 287.89C71.2821 294.874 74.3296 302.096 72.544 311.918C69.4499 328.938 70.3573 334.69 75.6022 348.526C80.8816 362.454 80.9723 378.537 80.9736 379.215L78.3085 379.22L78.3072 379.223Z" fill="black"/>
<path d="M387.952 430.637L385.433 429.767C385.507 429.557 392.863 408.416 405.344 386.454C412.691 373.523 420.359 362.826 428.13 354.662C437.94 344.359 447.97 338.06 457.94 335.942L458.493 338.549C437.002 343.114 418.988 367.836 407.66 387.771C395.301 409.522 388.024 430.428 387.952 430.637Z" fill="black"/>
<path d="M375.179 430.577L372.622 429.828C372.697 429.574 380.131 403.985 385.589 369.11C390.619 336.967 394.955 290.135 387.036 249.564L389.652 249.054C393.185 267.154 394.621 287.967 393.919 310.913C393.358 329.246 391.439 348.978 388.217 369.562C382.731 404.6 375.255 430.323 375.181 430.579L375.179 430.577Z" fill="black"/>
<path d="M360.892 430.569C360.852 430.431 356.844 416.519 349.901 401.735C340.816 382.39 330.876 370.331 321.155 366.861C315.23 364.748 309.202 365.776 303.236 369.919L301.716 367.729C308.429 363.068 315.27 361.931 322.05 364.352C327.912 366.444 333.746 371.237 339.388 378.597C343.832 384.394 348.186 391.809 352.328 400.635C359.357 415.609 363.415 429.696 363.455 429.838L360.892 430.571V430.569Z" fill="black"/>
<path d="M350.909 430.897C350.84 430.784 343.941 419.491 338.179 411.633C336.005 408.666 332.836 408.056 329.771 407.465C325.431 406.63 320.511 405.681 320.867 397.269L320.912 396.199C321.225 388.911 321.451 383.647 319.391 381.656C318.41 380.708 316.795 380.357 314.306 380.551C310.505 380.845 307.03 380.224 303.965 379.676C299.517 378.882 295.677 378.196 291.943 380.325C290.242 381.297 289.173 380.94 288.577 380.468C287.526 379.639 287.341 378.022 288.028 375.663C288.877 372.748 291.288 368.13 295.506 363.913C298.754 360.667 304.148 356.643 311.403 355.908C320.245 355.014 325.788 354.701 329.759 355.615C333.73 356.53 336.055 358.571 339.203 362.266C341.908 365.441 343.295 367.356 344.306 368.754C346.281 371.481 346.487 371.766 352.741 375.589C357.406 378.441 360.494 381.165 362.181 383.919C363.646 386.31 364.069 388.746 363.472 391.364C362.255 396.711 366.91 421.014 368.806 429.927L366.2 430.481C366.182 430.4 364.457 422.27 362.943 413.412C360.888 401.382 360.191 393.765 360.873 390.772C361.533 387.874 361.047 383.789 351.351 377.864C344.891 373.915 344.361 373.373 342.147 370.319C341.161 368.957 339.81 367.091 337.173 363.996C331.755 357.637 329.582 356.748 311.671 358.562C302.814 359.459 295.962 366.162 292.503 372.137C290.68 375.285 290.263 377.372 290.284 378.182C290.375 378.144 290.487 378.089 290.623 378.012C295.195 375.402 299.683 376.204 304.434 377.053C307.484 377.598 310.639 378.162 314.1 377.894C317.405 377.638 319.674 378.225 321.243 379.74C324.166 382.565 323.931 388.036 323.576 396.315L323.531 397.384C323.272 403.5 325.908 404.008 330.276 404.849C333.511 405.473 337.537 406.248 340.33 410.058C346.16 418.008 353.115 429.396 353.185 429.511L350.91 430.899L350.909 430.897Z" fill="black"/>
<path d="M365.213 411.79L362.69 410.933C362.728 410.819 366.614 399.233 368.178 383.591C368.89 376.48 366.868 372.363 364.914 368.381C362.61 363.685 360.226 358.831 362.666 349.84C365.016 341.177 368.161 339.682 370.687 338.481C372.818 337.468 374.225 336.797 374.754 330.627C375.257 324.764 373.478 322.63 371.595 320.371C369.214 317.516 366.753 314.562 369.701 305.411C371.823 298.827 374.104 296.086 375.938 293.884C378.319 291.024 379.755 289.298 378.631 279.18C377.714 270.924 375.049 267.645 372.909 265.01C370.458 261.993 368.341 259.387 370.646 251.851C373.006 244.134 375.19 239.699 377.947 237.019C381.305 233.755 385.538 233.026 391.271 234.726C396.796 236.364 400.688 240.251 402.53 245.963C404.178 251.077 404.147 257.505 402.439 264.552C401.125 269.973 403.597 276.857 406.215 284.144C409.631 293.652 413.502 304.429 409.507 314.301C407.353 319.622 405.725 322.612 404.648 324.592C403.155 327.335 402.936 332.326 403.993 339.563C404.602 343.733 405.14 346.727 405.533 348.914C406.763 355.75 406.816 356.616 404.72 364.78L402.139 364.116C404.151 356.283 404.081 355.892 402.911 349.386C402.514 347.181 401.971 344.161 401.356 339.948C399.69 328.542 399.717 328.076 402.307 323.317C403.418 321.276 404.94 318.481 407.036 313.301C410.65 304.373 407.12 294.548 403.707 285.045C400.95 277.371 398.347 270.121 399.85 263.923C401.442 257.353 401.491 251.426 399.994 246.78C398.412 241.874 395.222 238.678 390.513 237.281C381.644 234.65 377.597 238.237 373.194 252.631C371.304 258.807 372.686 260.509 374.977 263.328C377.213 266.08 380.275 269.851 381.278 278.886C382.472 289.631 380.969 292.003 377.984 295.59C376.297 297.616 374.199 300.137 372.236 306.23C369.737 313.984 371.46 316.05 373.64 318.665C375.686 321.118 378.004 323.9 377.409 330.856C377.116 334.273 376.481 336.592 375.414 338.154C374.368 339.683 373.078 340.296 371.831 340.89C369.691 341.907 367.267 343.062 365.236 350.541C363.06 358.562 365.027 362.57 367.304 367.209C369.326 371.326 371.615 375.991 370.829 383.859C369.232 399.822 365.252 411.674 365.212 411.793L365.213 411.79Z" fill="black"/>
<path d="M395.98 430.485L393.375 429.922C395.213 421.432 397.613 414.826 400.712 409.728C403.45 405.226 406.367 402.483 408.942 400.064C411.888 397.295 414.433 394.902 416.231 390.477C417.109 388.314 417.85 386.45 418.503 384.806C421.727 376.691 422.813 373.956 427.435 368.156C430.326 364.525 432.698 364.288 435.444 364.013C438.264 363.732 441.774 363.38 447.838 358.731C454.008 354 453.845 350.719 453.725 348.322C453.62 346.215 453.503 343.828 457.939 342.89C460.257 342.399 463.216 342.337 466.076 342.277C470.482 342.183 475.475 342.078 476.665 340.321C477.048 339.756 477.022 338.879 476.586 337.716C475.728 335.425 473.929 333.797 471.237 332.878C466.128 331.132 458.436 332.333 452.948 335.73C448.616 338.411 445.35 337.311 442.468 336.338C439.11 335.205 436.211 334.225 431.087 338.292C426.866 341.642 425.313 345.57 423.943 349.035C422.174 353.513 420.496 357.753 413.519 357.753C413.223 357.753 412.918 357.745 412.602 357.73C406.982 357.451 405.713 361.069 403.782 368.021C402.452 372.812 400.944 378.242 396.857 382.684C388.016 392.297 380.069 430.096 379.99 430.476L377.381 429.932C377.71 428.349 385.559 391.03 394.896 380.879C398.548 376.908 399.964 371.806 401.214 367.305C402.117 364.055 402.969 360.985 404.555 358.735C406.422 356.086 409.099 354.886 412.734 355.065C418.581 355.353 419.666 352.605 421.466 348.053C422.885 344.464 424.651 339.996 429.432 336.202C435.691 331.234 439.744 332.603 443.322 333.809C446.094 334.745 448.282 335.483 451.548 333.46C457.756 329.616 466.208 328.338 472.102 330.351C475.536 331.524 477.951 333.745 479.085 336.778C479.84 338.797 479.77 340.492 478.874 341.814C476.911 344.71 471.677 344.821 466.135 344.938C463.397 344.996 460.565 345.056 458.492 345.494C457.395 345.726 456.71 346.034 456.509 346.384C456.317 346.718 456.352 347.399 456.39 348.186C456.53 351.004 456.742 355.261 449.463 360.843C442.797 365.954 438.702 366.363 435.712 366.662C433.218 366.911 431.712 367.061 429.521 369.812C425.147 375.303 424.182 377.734 420.982 385.786C420.327 387.435 419.585 389.303 418.702 391.476C416.685 396.442 413.812 399.143 410.77 402.002C405.696 406.772 399.945 412.178 395.983 430.481L395.98 430.485Z" fill="black"/>
<path d="M222.974 290.188H134.172V176.645H207.071L222.974 192.552V290.188ZM136.837 287.522H220.309V193.656L205.966 179.309H136.837V287.521V287.522Z" fill="black"/>
<path d="M212.765 199.133H144.382V201.799H212.765V199.133Z" fill="black"/>
<path d="M212.765 210.117H144.382V212.782H212.765V210.117Z" fill="black"/>
<path d="M212.765 221.101H144.382V223.766H212.765V221.101Z" fill="black"/>
<path d="M212.765 232.084H144.382V234.75H212.765V232.084Z" fill="black"/>
<path d="M212.765 243.066H144.382V245.732H212.765V243.066Z" fill="black"/>
<path d="M212.765 254.05H144.382V256.715H212.765V254.05Z" fill="black"/>
<path d="M212.765 265.034H144.382V267.699H212.765V265.034Z" fill="black"/>
<path d="M212.765 276.017H144.382V278.683H212.765V276.017Z" fill="black"/>
<path d="M221.642 194.437H205.185V177.978H207.85V191.771H221.642V194.437Z" fill="black"/>
<path d="M300.679 70.1504H223.673C219.428 70.1504 215.976 66.6971 215.976 62.4521V26.1133H218.641V62.4534C218.641 65.2283 220.898 67.4861 223.673 67.4861H300.679C303.454 67.4861 305.711 65.2283 305.711 62.4534V26.1133H308.376V62.4534C308.376 66.6984 304.923 70.1517 300.679 70.1517V70.1504Z" fill="black"/>
<path d="M262.176 42.4587L218.045 27.9325C215.454 27.0795 213.712 24.6724 213.712 21.9429V13.385C213.712 10.7993 215.816 8.69482 218.401 8.69482H305.953C308.538 8.69482 310.643 10.7993 310.643 13.385V21.9429C310.643 24.6724 308.901 27.0795 306.309 27.9325L262.179 42.4587H262.176ZM218.4 11.3591C217.283 11.3591 216.376 12.2667 216.376 13.3836V21.9415C216.376 23.5169 217.382 24.907 218.878 25.3988L262.176 39.6505L305.474 25.3988C306.97 24.9057 307.976 23.5169 307.976 21.9415V13.3836C307.976 12.2667 307.069 11.3591 305.952 11.3591H218.4Z" fill="black"/>
<path d="M274.947 11.3592H249.406V7.25149C249.406 3.25975 252.654 0.0117188 256.645 0.0117188H267.708C271.699 0.0117188 274.947 3.25975 274.947 7.25149V11.3592ZM252.071 8.69359H272.282V7.25149C272.282 4.7285 270.23 2.67732 267.708 2.67732H256.645C254.122 2.67732 252.071 4.72983 252.071 7.25149V8.69359Z" fill="black"/>
<path d="M144.239 154.158C142.644 154.158 141.045 154.08 139.445 153.921C132.979 153.281 126.783 151.367 121.029 148.233C115.275 145.098 110.308 140.93 106.264 135.843C102.358 130.93 99.473 125.374 97.6914 119.327C95.9099 113.28 95.3195 107.046 95.9378 100.801C96.5774 94.3341 98.491 88.1366 101.625 82.3816C104.759 76.6265 108.926 71.6579 114.012 67.6128C118.924 63.7064 124.479 60.8209 130.525 59.0389C136.571 57.2569 142.803 56.6665 149.047 57.2849C155.512 57.9247 161.709 59.8386 167.463 62.9733C173.216 66.1081 178.184 70.2757 182.228 75.363C186.134 80.2757 189.019 85.8322 190.8 91.8791C192.582 97.926 193.172 104.16 192.554 110.405C191.914 116.872 190.001 123.069 186.867 128.824C183.733 134.579 179.566 139.548 174.48 143.593C169.568 147.5 164.013 150.385 157.967 152.167C153.47 153.493 148.87 154.158 144.239 154.158ZM144.323 59.732C128.057 59.732 112.279 68.3925 103.966 83.6571C98.1059 94.4181 96.7853 106.818 100.249 118.574C103.712 130.328 111.546 140.031 122.305 145.892C133.063 151.754 145.461 153.075 157.214 149.611C168.966 146.147 178.666 138.311 184.527 127.55C196.625 105.335 188.399 77.4169 166.189 65.3151C159.24 61.5286 151.731 59.732 144.325 59.732H144.323Z" fill="black"/>
<path d="M144.194 144.458C137.791 144.458 131.454 142.857 125.673 139.708C116.565 134.746 109.935 126.533 107.002 116.583C104.07 106.632 105.187 96.1348 110.148 87.0251C115.109 77.9154 123.32 71.2834 133.269 68.3499C143.217 65.4177 153.712 66.5346 162.82 71.4966C171.928 76.4587 178.558 84.6714 181.491 94.6221C184.423 104.573 183.306 115.07 178.345 124.18C173.384 133.289 165.173 139.921 155.225 142.855C151.589 143.926 147.881 144.457 144.194 144.457V144.458ZM144.297 69.4148C140.863 69.4148 137.409 69.9093 134.023 70.9075C124.758 73.6384 117.109 79.816 112.489 88.3006C102.951 105.815 109.436 127.827 126.947 137.368C132.426 140.353 138.347 141.769 144.186 141.769C157.01 141.769 169.451 134.941 176.004 122.905C180.625 114.421 181.666 104.645 178.934 95.3764C176.204 86.1095 170.028 78.4592 161.545 73.8384C156.161 70.9049 150.258 69.4148 144.295 69.4148H144.297Z" fill="black"/>
<path d="M158.612 79.215C156.06 77.7543 153.33 76.676 150.495 76.011L151.103 73.416C154.188 74.1397 157.161 75.3126 159.935 76.9013L158.611 79.215H158.612Z" fill="black"/>
<path d="M117.757 91.1699L115.417 89.8944C118.204 84.7751 122.303 80.4861 127.268 77.4913C132.085 74.5858 137.603 72.9558 143.225 72.7759L143.311 75.4401C132.646 75.7813 122.855 81.8083 117.757 91.1685V91.1699Z" fill="black"/>
<path d="M193.383 143.021L180.631 136.074L181.905 133.732L192.318 139.406L198.047 128.886L187.824 123.317L189.099 120.976L201.662 127.821L193.383 143.021Z" fill="black"/>
<path d="M268.26 188.226L189.191 145.146L201.173 123.146L280.242 166.226L268.26 188.226ZM192.806 144.081L267.194 184.61L276.626 167.292L202.237 126.763L192.806 144.081Z" fill="black"/>
<path d="M238.392 400.839C236.838 400.839 235.191 400.657 233.473 400.289C227.281 398.965 220.825 395.361 215.294 390.141C209.762 384.922 205.79 378.685 204.108 372.579C202.361 366.239 203.273 360.761 206.674 357.157C210.074 353.553 215.487 352.325 221.916 353.7C228.109 355.025 234.565 358.629 240.096 363.848C245.627 369.067 249.6 375.305 251.281 381.41C253.028 387.75 252.117 393.227 248.716 396.832C246.224 399.474 242.653 400.839 238.392 400.839ZM217.006 355.817C213.485 355.817 210.583 356.895 208.611 358.986C205.874 361.887 205.188 366.463 206.678 371.87C208.231 377.512 211.941 383.312 217.122 388.202C222.303 393.092 228.308 396.459 234.03 397.682C239.515 398.855 244.042 397.904 246.779 395.004C249.516 392.102 250.202 387.526 248.712 382.119C247.158 376.478 243.449 370.677 238.268 365.787C233.087 360.897 227.081 357.53 221.359 356.307C219.828 355.979 218.37 355.818 217.007 355.818L217.006 355.817Z" fill="black"/>
<path d="M234.192 405.291C232.636 405.291 230.992 405.11 229.273 404.742C223.081 403.417 216.625 399.814 211.094 394.594C205.562 389.375 201.59 383.138 199.908 377.032C198.161 370.692 199.073 365.214 202.472 361.61L206.672 357.157L208.611 358.986L204.411 363.439C201.675 366.34 200.988 370.916 202.477 376.323C204.031 381.965 207.741 387.765 212.922 392.655C218.103 397.545 224.108 400.912 229.83 402.135C235.314 403.308 239.841 402.357 242.578 399.456L246.779 395.003L248.717 396.832L244.517 401.285C242.027 403.925 238.453 405.291 234.193 405.291H234.192Z" fill="black"/>
<path d="M213.949 362.096L212.12 364.035L241.512 391.768L243.341 389.829L213.949 362.096Z" fill="black"/>
<path d="M233.531 390.36C232.083 390.36 231.007 390.081 230.909 390.056L231.597 387.481L231.253 388.769L231.593 387.48C231.632 387.489 235.439 388.447 237.537 386.222C238.556 385.142 238.975 383.937 238.785 382.638C238.589 381.301 237.761 379.909 236.39 378.615C234.016 376.375 231.905 376.258 228.323 378.17C224.313 380.311 220.69 379.896 217.555 376.937C215.948 375.421 214.838 373.573 214.43 371.738C213.944 369.543 214.495 367.464 215.987 365.884C219.026 362.663 222.744 363.307 222.9 363.336L222.415 365.958C222.327 365.943 219.94 365.578 217.924 367.714C215.899 369.861 217.26 372.996 219.383 374.999C221.687 377.173 224.056 377.426 227.068 375.819C230.302 374.093 234.157 372.844 238.218 376.677C240.031 378.387 241.138 380.315 241.422 382.252C241.732 384.369 241.059 386.375 239.476 388.051C237.704 389.931 235.331 390.36 233.532 390.36H233.531Z" fill="black"/>
<path d="M126.543 38.1259C121.989 38.1259 118.282 34.4193 118.282 29.8625C118.282 25.3056 121.987 21.5991 126.543 21.5991C131.099 21.5991 134.805 25.3056 134.805 29.8625C134.805 34.4193 131.099 38.1259 126.543 38.1259ZM126.543 24.2661C123.457 24.2661 120.947 26.7771 120.947 29.8638C120.947 32.9506 123.457 35.4616 126.543 35.4616C129.63 35.4616 132.14 32.9506 132.14 29.8638C132.14 26.7771 129.63 24.2661 126.543 24.2661Z" fill="black"/>
<path d="M86.1598 162.204C82.566 162.204 79.6437 159.28 79.6437 155.687C79.6437 152.094 82.5673 149.169 86.1598 149.169C89.7523 149.169 92.6758 152.094 92.6758 155.687C92.6758 159.28 89.7523 162.204 86.1598 162.204ZM86.1598 151.834C84.0357 151.834 82.3088 153.562 82.3088 155.685C82.3088 157.809 84.0371 159.537 86.1598 159.537C88.2825 159.537 90.0108 157.809 90.0108 155.685C90.0108 153.562 88.2825 151.834 86.1598 151.834Z" fill="black"/>
<path d="M458.213 249.847C454.619 249.847 451.697 246.923 451.697 243.329C451.697 239.736 454.621 236.812 458.213 236.812C461.806 236.812 464.729 239.736 464.729 243.329C464.729 246.923 461.806 249.847 458.213 249.847ZM458.213 239.476C456.089 239.476 454.362 241.205 454.362 243.328C454.362 245.451 456.09 247.18 458.213 247.18C460.336 247.18 462.064 245.451 462.064 243.328C462.064 241.205 460.336 239.476 458.213 239.476Z" fill="black"/>
<path d="M40.59 288.222C36.0355 288.222 32.3284 284.516 32.3284 279.959C32.3284 275.402 36.0341 271.695 40.59 271.695C45.1459 271.695 48.8517 275.402 48.8517 279.959C48.8517 284.516 45.1459 288.222 40.59 288.222ZM40.59 274.362C37.5039 274.362 34.9934 276.873 34.9934 279.96C34.9934 283.047 37.5039 285.558 40.59 285.558C43.6762 285.558 46.1866 283.047 46.1866 279.96C46.1866 276.873 43.6762 274.362 40.59 274.362Z" fill="black"/>
<path d="M394.16 412.353L300.174 386.177C295.6 385.124 291.35 381.099 288.185 374.874C285.049 368.702 283.332 361.062 283.332 353.321V75.7305C283.332 67.9896 285.049 60.35 288.185 54.1778C291.35 47.9523 295.6 43.9272 300.174 42.8743L394.293 16.7008C400.424 15.2893 420.544 14.2018 428.548 23.5074C433.239 28.9612 435.538 37.3938 435.538 46.7501V382.3C435.538 391.658 433.072 399.952 428.548 405.543C420.812 415.107 400.292 413.764 394.161 412.352L394.16 412.353Z" fill="#D7CA00"/>
<path d="M404.891 414.343C400.436 414.343 396.393 413.893 393.935 413.326L393.891 413.316L299.926 387.146C295.083 386.021 290.597 381.824 287.294 375.327C284.095 369.032 282.332 361.217 282.332 353.321V75.7306C282.332 67.8351 284.093 60.0209 287.294 53.7247C290.597 47.226 295.083 43.029 299.926 41.9054L394.045 15.7319L394.068 15.7265C397.511 14.9335 404.223 14.3964 410.822 15.0908C416.742 15.7132 424.755 17.5658 429.304 22.8557C433.967 28.2775 436.534 36.7635 436.534 46.7515V382.302C436.534 391.947 433.973 400.425 429.323 406.173C424.925 411.61 416.849 413.462 410.849 414.06C408.85 414.258 406.83 414.345 404.889 414.345L404.891 414.343ZM394.405 411.383C396.845 411.942 403.348 412.796 410.653 412.07C416.275 411.51 423.807 409.815 427.77 404.915C432.134 399.521 434.537 391.49 434.537 382.3V46.7515C434.537 37.242 432.141 29.2198 427.789 24.1605C420.144 15.2721 400.489 16.309 394.537 17.6711L300.419 43.8447L300.397 43.85C296.131 44.8323 292.111 48.6614 289.076 54.6323C286.016 60.6526 284.33 68.1456 284.33 75.7319V353.321C284.33 360.907 286.016 368.4 289.076 374.421C292.111 380.392 296.131 384.222 300.397 385.203L300.441 385.214L394.404 411.383H394.405Z" fill="#958D04"/>
<path d="M390.966 405.456L279.018 380.537C271.39 378.839 265.321 366.936 265.321 353.92V75.1323C265.321 62.1161 271.39 50.2129 279.018 48.5149L390.966 23.5955C401.281 21.2991 409.828 32.0322 409.828 47.6166V381.433C409.828 397.018 401.281 407.75 390.966 405.454V405.456Z" fill="#F6F6F6"/>
<path d="M390.966 411.943L279.018 386.177C274.443 385.124 270.194 381.099 267.029 374.874C263.892 368.702 262.176 361.062 262.176 353.321V75.7307C262.176 67.9898 263.892 60.3502 267.029 54.178C270.194 47.9524 274.443 43.9274 279.018 42.8745L390.966 17.1088C397.097 15.6973 402.943 17.9484 407.391 23.5075C411.885 29.1226 414.38 37.394 414.38 46.7503V382.3C414.38 391.658 411.885 399.928 407.391 405.543C402.943 411.102 397.097 413.353 390.966 411.942V411.943ZM279.018 54.1553C273.177 55.4108 268.493 64.5418 268.493 74.5285V354.523C268.493 364.509 273.177 373.64 279.018 374.897L390.966 398.97C398.824 400.66 405.323 392.422 405.323 380.577V48.4762C405.323 36.6316 398.824 28.3936 390.966 30.0836L279.018 54.1566V54.1553Z" fill="#D7CA00"/>
<path d="M394.529 413.357C393.286 413.357 392.021 413.212 390.742 412.917L278.794 387.152C273.941 386.035 269.448 381.835 266.139 375.327C262.939 369.032 261.177 361.217 261.177 353.321V75.7308C261.177 67.8353 262.938 60.0211 266.139 53.7249C269.448 47.2169 273.941 43.0172 278.794 41.9003L390.742 16.1346C397.293 14.6272 403.482 17.0236 408.171 22.8826C412.819 28.6909 415.38 37.1675 415.38 46.7504V382.3C415.38 391.883 412.821 400.36 408.171 406.168C404.398 410.884 399.653 413.356 394.529 413.356V413.357ZM394.486 17.702C393.403 17.702 392.302 17.8286 391.191 18.0845L279.243 43.8502C274.977 44.8325 270.957 48.6616 267.922 54.6326C264.862 60.6528 263.177 68.1458 263.177 75.7321V353.321C263.177 360.908 264.862 368.401 267.922 374.421C270.957 380.392 274.977 384.222 279.243 385.203L391.191 410.969C396.953 412.294 402.428 410.147 406.611 404.919C410.976 399.464 413.382 391.431 413.382 382.3V46.7517C413.382 37.6207 410.978 29.5879 406.611 24.1327C403.236 19.9144 399.017 17.7006 394.486 17.7006V17.702ZM393.01 400.191C392.268 400.191 391.515 400.109 390.755 399.947L278.807 375.874C275.689 375.203 272.801 372.564 270.676 368.442C268.623 364.459 267.493 359.517 267.493 354.523V74.5286C267.493 69.5359 268.623 64.5926 270.676 60.6102C272.801 56.4878 275.689 53.8489 278.807 53.1785L390.755 29.1054C393.943 28.4204 397.021 29.1841 399.655 31.3125C403.829 34.6845 406.321 41.1006 406.321 48.475V380.576C406.321 387.95 403.829 394.365 399.655 397.738C397.647 399.36 395.383 400.189 393.009 400.191H393.01ZM279.018 54.1554L279.228 55.1324C276.706 55.6748 274.299 57.9459 272.454 61.5258C270.544 65.2297 269.493 69.8478 269.493 74.5273V354.522C269.493 359.203 270.544 363.82 272.454 367.524C274.299 371.103 276.704 373.375 279.228 373.917L391.176 397.989C393.754 398.543 396.251 397.918 398.4 396.18C402.108 393.184 404.323 387.349 404.323 380.573V48.4763C404.323 41.7004 402.108 35.8654 398.4 32.8692C396.251 31.1326 393.752 30.5075 391.176 31.0606L279.228 55.1337L279.018 54.1567V54.1554Z" fill="#D7CA00"/>
<path d="M277.517 160.138V132.13L295.776 130.318V158.925L277.517 160.139V160.138ZM280.182 134.544V157.29L293.111 156.43V133.261L280.182 134.544Z" fill="#636360"/>
<path d="M394.852 126.934L302.256 135.46L302.5 138.115L395.096 129.588L394.852 126.934Z" fill="#636360"/>
<path d="M394.876 143.16L302.278 149.994L302.474 152.653L395.072 145.819L394.876 143.16Z" fill="#636360"/>
<path d="M277.517 205.521V177.522L295.776 176.782V205.381L277.517 205.521ZM280.182 180.082V202.836L293.111 202.737V179.56L280.182 180.084V180.082Z" fill="#636360"/>
<path d="M394.916 179.269L302.319 182.342L302.407 185.006L395.004 181.934L394.916 179.269Z" fill="#636360"/>
<path d="M394.962 195.443L302.364 196.833L302.404 199.499L395.002 198.109L394.962 195.443Z" fill="#636360"/>
<path d="M295.774 251.843L277.516 250.91V222.909L295.774 223.244V251.843ZM280.181 248.376L293.109 249.037V225.86L280.181 225.623V248.375V248.376Z" fill="#636360"/>
<path d="M302.424 229.187L302.356 231.852L394.953 234.228L395.022 231.564L302.424 229.187Z" fill="#636360"/>
<path d="M302.429 243.705L302.313 246.368L394.91 250.428L395.027 247.765L302.429 243.705Z" fill="#636360"/>
<path d="M295.774 298.31L277.516 296.303V268.292L295.774 269.7V298.31ZM280.181 293.914L293.109 295.335V272.168L280.181 271.171V293.914Z" fill="#636360"/>
<path d="M302.459 276.008L302.235 278.665L394.832 286.474L395.056 283.818L302.459 276.008Z" fill="#636360"/>
<path d="M302.507 290.56L302.235 293.211L394.832 302.717L395.104 300.065L302.507 290.56Z" fill="#636360"/>
<path d="M295.774 344.781L277.516 341.699V313.669L295.774 316.151V344.779V344.781ZM280.181 339.447L293.109 341.628V318.48L280.181 316.724V339.448V339.447Z" fill="#636360"/>
<path d="M302.566 322.891L302.188 325.53L394.785 338.794L395.163 336.155L302.566 322.891Z" fill="#636360"/>
<path d="M302.585 337.418L302.16 340.05L394.756 355L395.181 352.369L302.585 337.418Z" fill="#636360"/>
<path d="M384.121 89.7139L285.868 103.49L286.238 106.13L384.491 92.3537L384.121 89.7139Z" fill="#636360"/>
<path d="M372.303 63.7763L295.302 77.0933L295.756 79.7199L372.757 66.403L372.303 63.7763Z" fill="#636360"/>
<path d="M171.147 289.823C171.147 289.823 176.477 298.566 169.361 300.815C164.595 302.323 164.19 290.721 164.19 290.721C164.19 290.721 170.563 287.435 171.147 289.823Z" fill="#F4E68B"/>
<path d="M139.63 227.228C139.63 227.228 168.894 224.52 176.602 258.109C180.918 276.915 168.238 296.234 168.238 296.234L160.462 295.536C160.462 295.536 163.81 265.568 153.949 252.773C144.089 239.978 139.63 227.228 139.63 227.228Z" fill="#78797A"/>
<path d="M171.292 291.884C169.268 350.006 165.752 402.08 161.736 433.605C156.332 435.812 150.262 435.801 145.007 433.605C136.342 384.95 129.508 334.699 131.74 291.884H171.292Z" fill="#E6E0D3"/>
<path d="M92.2549 291.884C94.279 350.006 97.7955 402.08 101.812 433.605C107.215 435.812 113.285 435.801 118.54 433.605C127.206 384.95 134.039 334.699 131.807 291.884H92.2549Z" fill="#E6E0D3"/>
<path d="M131.648 291.864L131.103 328.193L132.435 328.213L132.98 291.884L131.648 291.864Z" fill="#F6F6F6"/>
<path d="M132.373 324.663C131.896 324.663 131.576 324.463 131.524 324.429L132.264 323.32C132.264 323.32 132.255 323.312 132.237 323.302C132.268 323.317 132.433 323.386 132.71 323.212C133.683 322.601 136.811 318.54 136.242 291.898L137.574 291.87C137.817 303.226 137.429 311.791 136.419 317.326C135.697 321.289 134.647 323.672 133.299 324.411C132.956 324.601 132.64 324.663 132.373 324.663Z" fill="#F6F6F6"/>
<path d="M160.062 434.629L158.079 434.375C162.031 403.349 165.601 350.069 167.628 291.85L169.625 291.919C167.596 350.196 164.021 403.545 160.062 434.629Z" fill="#F6F6F6"/>
<path d="M103.485 434.629C99.5251 403.545 95.95 350.196 93.9219 291.919L95.9193 291.85C97.9461 350.069 101.516 403.349 105.468 434.375L103.485 434.629Z" fill="#F6F6F6"/>
<path d="M181.623 455.152H142.755C142.021 455.152 141.424 454.555 141.424 453.821V450.154H182.955V453.821C182.955 454.555 182.358 455.152 181.623 455.152Z" fill="#E6E0D3"/>
<path d="M161.735 433.605C161.735 433.605 160.943 439.196 166.962 441.879C173.875 444.96 182.736 443.768 182.955 450.153H141.424C141.424 450.153 141.032 445.432 142.754 441.567C143.842 439.121 144.722 437.603 145.006 433.605H161.734H161.735Z" fill="#383A3C"/>
<path d="M169.348 452.32H141.424V452.986H169.348V452.32Z" fill="#383A3C"/>
<path d="M174.694 448.912C174.51 448.908 170.134 448.789 165.666 446.865C159.701 444.295 156.52 439.71 156.468 433.607L157.134 433.602C157.185 439.504 160.144 443.759 165.93 446.253C170.28 448.127 174.666 448.246 174.709 448.247L174.694 448.913V448.912Z" fill="#E6E0D3"/>
<path d="M170.572 443.122L169.463 445.719L170.076 445.981L171.185 443.384L170.572 443.122Z" fill="#E6E0D3"/>
<path d="M167.588 442.123L166.16 444.568L166.735 444.904L168.164 442.459L167.588 442.123Z" fill="#E6E0D3"/>
<path d="M165.27 440.884L163.353 442.994L163.846 443.442L165.763 441.332L165.27 440.884Z" fill="#E6E0D3"/>
<path d="M163.536 439.341L161.37 441.296L161.816 441.791L163.983 439.836L163.536 439.341Z" fill="#E6E0D3"/>
<path d="M162.397 437.498L159.599 438.578L159.839 439.2L162.637 438.12L162.397 437.498Z" fill="#E6E0D3"/>
<path d="M173.358 443.752L172.386 446.296L173.008 446.534L173.98 443.99L173.358 443.752Z" fill="#E6E0D3"/>
<path d="M161.838 435.388H158.966V436.055H161.838V435.388Z" fill="#E6E0D3"/>
<path d="M176.335 444.48C180.008 445.384 182.832 446.585 182.955 450.154H174.207C174.045 447.09 175.237 445.403 176.335 444.48Z" fill="#E6E0D3"/>
<path d="M182.955 449.821H141.424V450.487H182.955V449.821Z" fill="#383A3C"/>
<path d="M152.764 439.999V443.135L150.048 444.704L147.332 443.135V439.999L150.048 438.431L152.764 439.999Z" fill="#E6E0D3"/>
<path d="M120.767 450.154H96.9479C96.5042 445.046 102.278 443.434 101.814 433.605H118.543C117.879 441.093 120.767 443.824 120.767 450.154Z" fill="#383A3C"/>
<path d="M119.425 455.152H98.2898C97.5489 455.152 96.9479 454.551 96.9479 453.81V450.154H120.767V453.81C120.767 454.551 120.166 455.152 119.425 455.152Z" fill="#E6E0D3"/>
<path d="M97.0372 450.154C97.497 446.681 102.583 443.934 108.858 443.934C115.133 443.934 120.219 446.681 120.679 450.154H97.0386H97.0372Z" fill="#E6E0D3"/>
<path d="M120.767 449.821H96.9479V450.488H120.767V449.821Z" fill="#383A3C"/>
<path d="M114.142 442.706C111.243 442.052 108.302 442.052 105.404 442.706L105.258 442.055C108.253 441.381 111.291 441.381 114.287 442.055L114.14 442.706H114.142Z" fill="#E6E0D3"/>
<path d="M113.923 440.75C111.751 440.261 107.796 440.261 105.624 440.75L105.477 440.1C107.765 439.585 111.78 439.585 114.07 440.1L113.923 440.75Z" fill="#E6E0D3"/>
<path d="M113.703 438.795C112.271 438.472 107.275 438.472 105.842 438.795L105.696 438.145C107.22 437.802 112.325 437.802 113.85 438.145L113.703 438.795Z" fill="#E6E0D3"/>
<path d="M106.062 436.841L105.916 436.191C106.709 436.012 112.838 436.012 113.631 436.191L113.485 436.841C112.79 436.685 106.755 436.685 106.062 436.841Z" fill="#E6E0D3"/>
<path d="M113.338 434.228H106.208V434.894H113.338V434.228Z" fill="#E6E0D3"/>
<path d="M131.774 226.577C95.9752 226.577 92.2281 238.183 92.2548 291.884C118.179 307.369 144.518 307.795 171.291 291.884C171.291 262.932 167.57 226.577 131.772 226.577H131.774Z" fill="#78797A"/>
<path d="M139.63 226.807C136.72 239.476 129.396 230.735 123.914 226.807L125.356 219.879H138.19L139.631 226.807H139.63Z" fill="#FFC89F"/>
<path d="M145.861 216.67C147.536 209.062 144.014 201.82 137.995 200.494C131.976 199.169 125.738 204.261 124.063 211.869C122.388 219.476 125.91 226.718 131.929 228.044C137.948 229.37 144.186 224.278 145.861 216.67Z" fill="#FFC89F"/>
<path d="M143.159 195.923C135.385 198.311 113.451 190.001 124.868 221.787C124.868 221.787 127.094 217.747 126.419 211.152C126.358 210.557 126.473 210.065 126.461 209.665L127.575 208.259C127.575 208.259 128.853 210.072 128.362 214.211C127.971 217.522 134.837 211.235 134.125 206.79C134.125 206.79 144.447 211.853 149.965 206.264C155.485 200.674 148.475 194.288 143.159 195.923Z" fill="#4D2C27"/>
<path d="M127.54 212.016C127.064 214.178 127.492 216.109 125.769 215.729C124.048 215.349 123.038 213.29 123.513 211.128C123.989 208.966 125.771 207.523 127.494 207.902C128.429 208.108 128.016 209.854 127.54 212.015V212.016Z" fill="#F4E68B"/>
<path d="M113.024 228.441C94.5175 231.448 78.5218 254.232 101.535 273.027C118.504 286.887 151.663 281.512 151.663 281.512L149.588 271.372C149.588 271.372 114.62 266.477 109.682 250.9C115.306 244.288 127.048 226.164 113.025 228.441H113.024Z" fill="#78797A"/>
<path d="M172.29 291.884H170.292C170.292 279.256 169.649 263.112 164.644 250.26L166.507 249.535C171.633 262.697 172.29 279.082 172.29 291.886V291.884Z" fill="#656768"/>
<path d="M172.031 258.483L170.626 257.226H170.625C170.236 256.84 169.628 256.676 168.943 256.841L159.237 259.191C158.063 259.474 157.112 260.615 157.112 261.739V279.862C157.112 280.381 157.315 280.802 157.65 281.081H157.647L159.15 282.427L159.514 281.314L168.943 279.031C170.117 278.747 171.068 277.606 171.068 276.482V259.606L172.031 258.482V258.483Z" fill="#B3AEA4"/>
<path d="M170.429 280.365L160.723 282.714C159.549 282.998 158.597 282.319 158.597 281.196V263.073C158.597 261.951 159.549 260.81 160.723 260.525L170.429 258.175C171.603 257.891 172.554 258.571 172.554 259.693V277.816C172.554 278.939 171.603 280.079 170.429 280.365Z" fill="#D9D3C7"/>
<path d="M157.11 271.609V269.799C155.531 269.657 152.899 270.194 149.752 272.177L151.406 280.259C151.406 280.259 158.814 282.984 162.987 277.422C166.403 272.868 163.007 268.91 157.11 271.609Z" fill="#FFC89F"/>
<path d="M136.752 283.537C135.515 283.537 134.236 283.516 132.925 283.466C126.807 283.238 121.204 282.464 116.272 281.167C110.056 279.532 104.884 277.054 100.903 273.802C97.0639 270.666 94.1137 267.271 92.1349 263.711L93.8818 262.74C95.7367 266.077 98.5244 269.279 102.166 272.253C110.709 279.231 123.628 281.115 132.961 281.467C141.064 281.772 147.944 281.006 150.47 280.673L148.747 272.255C146.471 271.891 138.989 270.575 131.165 267.924C125.648 266.056 121.032 263.894 117.445 261.502C112.857 258.443 109.924 254.978 108.728 251.202L110.633 250.597C115.328 265.401 149.382 270.333 149.725 270.381L150.425 270.478L152.85 282.331L151.821 282.497C151.748 282.509 145.307 283.536 136.751 283.536L136.752 283.537Z" fill="#656768"/>
<path d="M134.817 228.969C134.255 228.969 133.664 228.911 133.058 228.772C130.442 228.171 128.233 226.25 126.489 223.065L128.242 222.105C129.695 224.76 131.459 226.346 133.486 226.82C136.284 227.473 138.745 225.779 138.769 225.761L139.925 227.393C139.818 227.469 137.667 228.971 134.816 228.971L134.817 228.969Z" fill="#F6C54A"/>
</g>
<defs>
<clipPath id="clip0_6_3414">
<rect width="479.603" height="455.141" fill="white" transform="translate(0 0.0117188)"/>
</clipPath>
</defs>
</svg>
