<svg width="305" height="75" viewBox="0 0 305 75" fill="none" xmlns="http://www.w3.org/2000/svg">
<line y1="67.5" x2="251" y2="67.5" stroke="#D7CA00" stroke-width="5"/>
<rect x="131" y="5" width="174" height="65" fill="#D7CA00"/>
<path d="M9.0625 37.5312V34.9688C9.0625 27.7188 10.8021 22.2188 14.2812 18.4688C17.7604 14.6979 22.4688 12.8125 28.4062 12.8125C33.7604 12.8125 37.875 14.125 40.75 16.75C43.625 19.375 45.0729 22.7917 45.0938 27V28.25H34.8438V27.5C34.8438 25.3542 34.2708 23.6875 33.125 22.5C32 21.2917 30.2917 20.6875 28 20.6875C25.5625 20.6875 23.6458 21.6562 22.25 23.5938C20.8542 25.5312 20.1562 28.5208 20.1562 32.5625V40.0938C20.1562 44.0312 20.9062 47.0208 22.4062 49.0625C23.9271 51.0833 26.0312 52.0938 28.7188 52.0938C30.0729 52.0938 31.2396 51.9271 32.2188 51.5938C33.2188 51.2396 34.1458 50.6979 35 49.9688V42.2188H28.125V34.9062L45.1875 34.875V53.4375C44 54.8125 42.0312 56.1979 39.2812 57.5938C36.5312 58.9896 32.9792 59.6875 28.625 59.6875C22.625 59.6875 17.8646 57.8125 14.3438 54.0625C10.8229 50.2917 9.0625 44.7812 9.0625 37.5312ZM50.5625 59V13.5H61.4375V59H50.5625ZM67.9375 59V13.5H83.75C89.6458 13.5 94.3021 15.3854 97.7188 19.1562C101.156 22.9062 102.875 28.1562 102.875 34.9062V37.4688C102.875 44.1979 101.167 49.4688 97.75 53.2812C94.3333 57.0938 89.6667 59 83.75 59H67.9375ZM78.4062 51.4688H82.8438C85.7396 51.4688 87.9896 50.4062 89.5938 48.2812C91.2188 46.1354 92.0312 42.9479 92.0312 38.7188V33.8125C92.0312 29.5417 91.2083 26.3958 89.5625 24.375C87.9167 22.3333 85.6771 21.3021 82.8438 21.2812H78.4062V51.4688ZM108.25 59V13.5H119.125V59H108.25Z" fill="white"/>
<path d="M138.406 44.5938V42.7188H148.125V45.5625C148.125 47.875 148.521 49.5625 149.312 50.625C150.125 51.6875 151.385 52.2188 153.094 52.2188C154.698 52.2188 155.927 51.6667 156.781 50.5625C157.635 49.4375 158.062 47.5417 158.062 44.875V13.5H168.812V43.625C168.812 48.75 167.531 52.7083 164.969 55.5C162.427 58.2917 158.646 59.6875 153.625 59.6875C148.708 59.6875 144.938 58.4688 142.312 56.0312C139.708 53.5938 138.406 49.7812 138.406 44.5938ZM174 37.5312V34.9688C174 27.3229 175.781 21.7188 179.344 18.1562C182.906 14.5938 187.479 12.8125 193.062 12.8125C198.667 12.8125 203.25 14.5938 206.812 18.1562C210.375 21.7188 212.156 27.3229 212.156 34.9688V37.5312C212.156 45.1771 210.375 50.7812 206.812 54.3438C203.25 57.9062 198.667 59.6875 193.062 59.6875C187.479 59.6875 182.906 57.9062 179.344 54.3438C175.781 50.7812 174 45.1771 174 37.5312ZM185.125 40.2188C185.125 44.4896 185.833 47.5625 187.25 49.4375C188.667 51.2917 190.604 52.2188 193.062 52.2188C195.521 52.2188 197.458 51.2917 198.875 49.4375C200.292 47.5625 201 44.4896 201 40.2188V32.3438C201 28.0938 200.292 25.0417 198.875 23.1875C197.458 21.3333 195.521 20.4062 193.062 20.4062C190.604 20.4062 188.667 21.3333 187.25 23.1875C185.833 25.0417 185.125 28.0938 185.125 32.3438V40.2188ZM217.438 59V13.5H235.594C240.219 13.5 243.667 14.5 245.938 16.5C248.229 18.5 249.375 21.375 249.375 25.125C249.375 27.7083 248.823 29.8542 247.719 31.5625C246.615 33.25 245.177 34.4062 243.406 35.0312V35.1562C245.594 35.7188 247.396 36.9167 248.812 38.75C250.25 40.5625 250.969 43.0625 250.969 46.25C250.969 50.25 249.656 53.375 247.031 55.625C244.427 57.875 240.865 59 236.344 59H217.438ZM227.906 51.8125H234.062C236.146 51.8125 237.677 51.2292 238.656 50.0625C239.656 48.8958 240.156 47.3125 240.156 45.3125C240.156 43.3333 239.656 41.75 238.656 40.5625C237.677 39.3542 236.146 38.75 234.062 38.75H227.906V51.8125ZM227.906 32.875H233.438C235.438 32.875 236.885 32.3438 237.781 31.2812C238.677 30.2188 239.125 28.7292 239.125 26.8125C239.125 24.9167 238.677 23.4688 237.781 22.4688C236.885 21.4688 235.438 20.9688 233.438 20.9688H227.906V32.875ZM253.969 46.7188V44.5312H263.938V45.9375C263.917 48.125 264.5 49.75 265.688 50.8125C266.896 51.875 268.573 52.4062 270.719 52.4062C272.781 52.4062 274.375 51.9167 275.5 50.9375C276.625 49.9583 277.188 48.6458 277.188 47C277.188 45.5417 276.573 44.3542 275.344 43.4375C274.115 42.5 271.74 41.4792 268.219 40.375C263.51 38.8958 260.052 37.0208 257.844 34.75C255.635 32.4792 254.531 29.5417 254.531 25.9375C254.531 21.8958 255.969 18.6979 258.844 16.3438C261.74 13.9896 265.594 12.8125 270.406 12.8125C275.177 12.8125 279.031 13.9167 281.969 16.125C284.906 18.3125 286.375 21.3958 286.375 25.375V27.125H276.562V26.0625C276.562 24.2708 276.052 22.8646 275.031 21.8438C274.01 20.8229 272.521 20.3125 270.562 20.3125C268.521 20.3125 267.031 20.75 266.094 21.625C265.177 22.4792 264.719 23.625 264.719 25.0625C264.719 26.3958 265.354 27.4896 266.625 28.3438C267.917 29.1771 270.396 30.1458 274.062 31.25C278.604 32.6042 281.948 34.4375 284.094 36.75C286.26 39.0625 287.344 42.1562 287.344 46.0312C287.344 50.3021 285.823 53.6458 282.781 56.0625C279.76 58.4792 275.781 59.6875 270.844 59.6875C265.906 59.6875 261.854 58.5938 258.688 56.4062C255.542 54.1979 253.969 50.9688 253.969 46.7188Z" fill="black"/>
</svg>
